<svg xmlns="http://www.w3.org/2000/svg" xmlns:xlink="http://www.w3.org/1999/xlink" xmlns:lucid="lucid" width="900" height="720"><g transform="translate(-145.7416332228583 -180)" lucid:page-tab-id="0_0"><path d="M165.74 280h860v600h-860z" fill="#fff"/><path d="M1025.74 280h-860v600h860" stroke="#000" stroke-width="2" fill="none"/><path d="M344.34 840.44C253.58 840.44 180 737.37 180 610.22S253.58 380 344.34 380c90.77 0 164.35 103.07 164.35 230.22s-73.6 230.22-164.36 230.22zM765.74 380h160v460h-160z" stroke="#000" stroke-width="2" fill="#fff"/><path d="M220 300h250v60H220z" fill="#fff"/><use xlink:href="#a" transform="matrix(1,0,0,1,220,300) translate(32.079074074074065 36.333333333333336)"/><use xlink:href="#b" transform="matrix(1,0,0,1,220,300) translate(141.56055555555557 36.333333333333336)"/><use xlink:href="#c" transform="matrix(1,0,0,1,220,300) translate(163.78277777777777 36.333333333333336)"/><path d="M800 300h100v60H800z" fill="#fff"/><use xlink:href="#d" transform="matrix(1,0,0,1,800,300) translate(14.819814814814807 36.333333333333336)"/><path d="M785.74 400h120v40h-120z" fill="#fff"/><use xlink:href="#e" transform="matrix(1,0,0,1,785.7416332228582,400) translate(30.4062345679012 22.787777777777777)"/><path d="M845.74 450c0 5.52-4.48 10-10 10s-10-4.48-10-10 4.48-10 10-10 10 4.48 10 10zM855.74 603.33c0 5.53-4.48 10-10 10s-10-4.47-10-10c0-5.52 4.48-10 10-10s10 4.48 10 10zM845.74 796.67c0 5.52-4.48 10-10 10s-10-4.48-10-10 4.48-10 10-10 10 4.48 10 10z" stroke="#000" stroke-width="2"/><path d="M285.74 420h100v40h-100z" fill="#fff"/><use xlink:href="#f" transform="matrix(1,0,0,1,285.74163322285824,420) translate(25.31364197530864 22.787777777777777)"/><path d="M265.74 660h140v40h-140z" fill="#fff"/><use xlink:href="#g" transform="matrix(1,0,0,1,265.74163322285824,660) translate(10.838333333333326 22.787777777777777)"/><path d="M835.76 462l.4 20.5.94 15.14 1.42 13.53 5.87 44.53.92 15.13.4 20.5" stroke="#000" stroke-width="2" fill="none"/><path d="M835.74 461l1-.15.02 1.17-2 .04-.02-1.2zM846.74 592.46l-1-.13-1 .13v-1.16h2z"/><path d="M835.76 784.66l.64-33.6 1.48-23.68 7.2-78.43.64-33.6" stroke="#000" stroke-width="2" fill="none"/><path d="M836.76 784.65l-.02 1.14-1-.14-1 .13.02-1.2zM846.74 615.37h-2v-1.18l1 .15 1-.16z"/><path d="M382.52 739.36l9.25-7.7 8.6-6.53 7.65-5.3 7-4.4 6.62-3.78 6.42-3.3 6.44-2.95 6.7-2.72 7.37-2.63 8.88-2.72 13.84-3.57 24.58-5.57 9.55-1.96 9.53-1.5 9.54-1.02 9.6-.58 9.64-.13 9.74.34 9.85.8 9.98 1.28 10.13 1.8 10.28 2.32 8.32 2.25 15.84 4.05 32.05 7.83 10.02 3.2 8 3.05 6.95 3.1 6.32 3.24 5.9 3.45 5.62 3.7 1.05.75 5.7 4.27 48.7 39.4 8.2 5.63 7.1 4.43 6.37 3.62 5.83 3 5.45 2.5 5.12 2.12 4.88 1.77 4.68 1.5 4.5 1.22 4.4 1 1.64.3" stroke="#000" stroke-width="2" fill="none"/><path d="M383.18 740.1l-1.52 1.27.1-1.36-.06-1.26.2-.17z"/><path d="M821.5 796.36l-14.63 3.26.88-9.23z" stroke="#000" stroke-width="2"/><path d="M535.74 640h160v40h-160z" fill="#fff"/><use xlink:href="#h" transform="matrix(1,0,0,1,535.7416332228584,640) translate(19.60376543209877 22.787777777777777)"/><use xlink:href="#i" transform="matrix(1,0,0,1,535.7416332228584,640) translate(87.38154320987654 22.787777777777777)"/><path d="M515.74 460h160v40h-160z" fill="#fff"/><use xlink:href="#j" transform="matrix(1,0,0,1,515.7416332228582,460) translate(30.066728395061723 22.787777777777777)"/><use xlink:href="#i" transform="matrix(1,0,0,1,515.7416332228582,460) translate(76.91858024691358 22.787777777777777)"/><path d="M382.75 500l175.03-.84 20.63 1.27 16.06 1.68 14.03 2.08 13.17 2.5 13.08 3.08 13.64 3.8 14.96 4.88 17.45 6.5 22.04 9.3 31.55 14.9 59.5 31.34 24.7 13.82" stroke="#000" stroke-width="2" fill="none"/><path d="M382.78 501h-1.1l.07-1-.04-1h1.07z"/><path d="M831.9 601.75l-14.7-2.92 4.52-8.1z" stroke="#000" stroke-width="2"/><path d="M165.74 200h180v60h-180z" fill="#fff"/><use xlink:href="#k" transform="matrix(1,0,0,1,165.7416332228583,200) translate(56.83833333333333 37.01)"/><path d="M380.75 500c0 22.1-17.9 40-40 40s-40-17.9-40-40 17.9-40 40-40 40 17.9 40 40zm-68.3-28.3l56.58 56.6m-56.57 0l56.57-56.6M380.75 740c0 22.1-17.9 40-40 40s-40-17.9-40-40 17.9-40 40-40 40 17.9 40 40zm-68.3-28.3l56.58 56.6m-56.57 0l56.57-56.6" stroke="#000" stroke-width="2" fill="#fff"/><path d="M300.75 500h80" stroke="#000" stroke-width="2" fill="none"/><path d="M300.77 501h-1l-.02-1 .06-1h.97zM381.75 500l-.06 1h-.98v-2h1z"/><path d="M300.75 740h80" stroke="#000" stroke-width="2" fill="none"/><path d="M300.77 741h-1l-.02-1 .06-1h.97zM381.75 740l-.06 1h-.98v-2h1z"/><defs><path d="M230 0l2-204L168 0h-37L68-204 70 0H24v-248h70l56 185 57-185h69V0h-46" id="l"/><path d="M185-48c-13 30-37 53-82 52C43 2 14-33 14-96s30-98 90-98c62 0 83 45 84 108H66c0 31 8 55 39 56 18 0 30-7 34-22zm-45-69c5-46-57-63-70-21-2 6-4 13-4 21h74" id="m"/><path d="M220-157c-53 9-28 100-34 157h-49v-107c1-27-5-49-29-50C55-147 81-57 75 0H25l-1-190h47c2 12-1 28 3 38 10-53 101-56 108 0 13-22 24-43 59-42 82 1 51 116 57 194h-49v-107c-1-25-5-48-29-50" id="n"/><path d="M135-194c52 0 70 43 70 98 0 56-19 99-73 100-30 1-46-15-58-35L72 0H24l1-261h50v104c11-23 29-37 60-37zM114-30c31 0 40-27 40-66 0-37-7-63-39-63s-41 28-41 65c0 36 8 64 40 64" id="o"/><path d="M135-150c-39-12-60 13-60 57V0H25l-1-190h47c2 13-1 29 3 40 6-28 27-53 61-41v41" id="p"/><g id="a"><use transform="matrix(0.07407407407407408,0,0,0.07407407407407408,0,0)" xlink:href="#l"/><use transform="matrix(0.07407407407407408,0,0,0.07407407407407408,22.148148148148152,0)" xlink:href="#m"/><use transform="matrix(0.07407407407407408,0,0,0.07407407407407408,36.96296296296297,0)" xlink:href="#n"/><use transform="matrix(0.07407407407407408,0,0,0.07407407407407408,60.66666666666667,0)" xlink:href="#o"/><use transform="matrix(0.07407407407407408,0,0,0.07407407407407408,76.8888888888889,0)" xlink:href="#m"/><use transform="matrix(0.07407407407407408,0,0,0.07407407407407408,91.70370370370371,0)" xlink:href="#p"/></g><path d="M144 0l-44-69L55 0H2l70-98-66-92h53l41 62 40-62h54l-67 91 71 99h-54" id="q"/><use transform="matrix(0.07407407407407408,0,0,0.07407407407407408,0,0)" xlink:href="#q" id="b"/><path d="M136-208V0H84v-208H4v-40h212v40h-80" id="r"/><path d="M25-224v-37h50v37H25zM25 0v-190h50V0H25" id="s"/><path d="M115-3C79 11 28 4 28-45v-112H4v-33h27l15-45h31v45h36v33H77v99c-1 23 16 31 38 25v30" id="t"/><path d="M25 0v-261h50V0H25" id="u"/><g id="c"><use transform="matrix(0.07407407407407408,0,0,0.07407407407407408,0,0)" xlink:href="#r"/><use transform="matrix(0.07407407407407408,0,0,0.07407407407407408,15.703703703703706,0)" xlink:href="#s"/><use transform="matrix(0.07407407407407408,0,0,0.07407407407407408,23.111111111111114,0)" xlink:href="#t"/><use transform="matrix(0.07407407407407408,0,0,0.07407407407407408,31.92592592592593,0)" xlink:href="#u"/><use transform="matrix(0.07407407407407408,0,0,0.07407407407407408,39.33333333333335,0)" xlink:href="#m"/></g><path d="M24-248c120-7 223 5 221 122C244-46 201 0 124 0H24v-248zM76-40c74 7 117-18 117-86 0-67-45-88-117-82v168" id="v"/><path d="M199 0l-22-63H83L61 0H9l90-248h61L250 0h-51zm-33-102l-36-108c-10 38-24 72-36 108h72" id="w"/><path d="M24 0v-248h195v40H76v63h132v40H76v65h150V0H24" id="x"/><g id="d"><use transform="matrix(0.07407407407407408,0,0,0.07407407407407408,0,0)" xlink:href="#v"/><use transform="matrix(0.07407407407407408,0,0,0.07407407407407408,19.185185185185187,0)" xlink:href="#w"/><use transform="matrix(0.07407407407407408,0,0,0.07407407407407408,36.370370370370374,0)" xlink:href="#r"/><use transform="matrix(0.07407407407407408,0,0,0.07407407407407408,52.59259259259259,0)" xlink:href="#x"/></g><path d="M127-220V0H93v-220H8v-28h204v28h-85" id="y"/><path d="M100-194c62-1 85 37 85 99 1 63-27 99-86 99S16-35 15-95c0-66 28-99 85-99zM99-20c44 1 53-31 53-75 0-43-8-75-51-75s-53 32-53 75 10 74 51 75" id="z"/><path d="M85-194c31 0 48 13 60 33l-1-100h32l1 261h-30c-2-10 0-23-3-31C134-8 116 4 85 4 32 4 16-35 15-94c0-66 23-100 70-100zm9 24c-40 0-46 34-46 75 0 40 6 74 45 74 42 0 51-32 51-76 0-42-9-74-50-73" id="A"/><path d="M141-36C126-15 110 5 73 4 37 3 15-17 15-53c-1-64 63-63 125-63 3-35-9-54-41-54-24 1-41 7-42 31l-33-3c5-37 33-52 76-52 45 0 72 20 72 64v82c-1 20 7 32 28 27v20c-31 9-61-2-59-35zM48-53c0 20 12 33 32 33 41-3 63-29 60-74-43 2-92-5-92 41" id="B"/><path d="M179-190L93 31C79 59 56 82 12 73V49c39 6 53-20 64-50L1-190h34L92-34l54-156h33" id="C"/><g id="e"><use transform="matrix(0.06172839506172839,0,0,0.06172839506172839,0,0)" xlink:href="#y"/><use transform="matrix(0.06172839506172839,0,0,0.06172839506172839,11.049382716049381,0)" xlink:href="#z"/><use transform="matrix(0.06172839506172839,0,0,0.06172839506172839,23.39506172839506,0)" xlink:href="#A"/><use transform="matrix(0.06172839506172839,0,0,0.06172839506172839,35.74074074074074,0)" xlink:href="#B"/><use transform="matrix(0.06172839506172839,0,0,0.06172839506172839,48.08641975308642,0)" xlink:href="#C"/></g><path d="M30 0v-248h33v221h125V0H30" id="D"/><path d="M117-194c89-4 53 116 60 194h-32v-121c0-31-8-49-39-48C34-167 62-67 57 0H25l-1-190h30c1 10-1 24 2 32 11-22 29-35 61-36" id="E"/><g id="f"><use transform="matrix(0.06172839506172839,0,0,0.06172839506172839,0,0)" xlink:href="#D"/><use transform="matrix(0.06172839506172839,0,0,0.06172839506172839,12.345679012345679,0)" xlink:href="#z"/><use transform="matrix(0.06172839506172839,0,0,0.06172839506172839,24.691358024691358,0)" xlink:href="#B"/><use transform="matrix(0.06172839506172839,0,0,0.06172839506172839,37.03703703703704,0)" xlink:href="#E"/></g><path d="M233-177c-1 41-23 64-60 70L243 0h-38l-65-103H63V0H30v-248c88 3 205-21 203 71zM63-129c60-2 137 13 137-47 0-61-80-42-137-45v92" id="F"/><path d="M100-194c63 0 86 42 84 106H49c0 40 14 67 53 68 26 1 43-12 49-29l28 8c-11 28-37 45-77 45C44 4 14-33 15-96c1-61 26-98 85-98zm52 81c6-60-76-77-97-28-3 7-6 17-6 28h103" id="G"/><path d="M135-143c-3-34-86-38-87 0 15 53 115 12 119 90S17 21 10-45l28-5c4 36 97 45 98 0-10-56-113-15-118-90-4-57 82-63 122-42 12 7 21 19 24 35" id="H"/><path d="M114-163C36-179 61-72 57 0H25l-1-190h30c1 12-1 29 2 39 6-27 23-49 58-41v29" id="I"/><path d="M108 0H70L1-190h34L89-25l56-165h34" id="J"/><path d="M59-47c-2 24 18 29 38 22v24C64 9 27 4 27-40v-127H5v-23h24l9-43h21v43h35v23H59v120" id="K"/><path d="M24-231v-30h32v30H24zM24 0v-190h32V0H24" id="L"/><g id="g"><use transform="matrix(0.06172839506172839,0,0,0.06172839506172839,0,0)" xlink:href="#F"/><use transform="matrix(0.06172839506172839,0,0,0.06172839506172839,15.987654320987653,0)" xlink:href="#G"/><use transform="matrix(0.06172839506172839,0,0,0.06172839506172839,28.333333333333332,0)" xlink:href="#H"/><use transform="matrix(0.06172839506172839,0,0,0.06172839506172839,39.44444444444444,0)" xlink:href="#G"/><use transform="matrix(0.06172839506172839,0,0,0.06172839506172839,51.79012345679012,0)" xlink:href="#I"/><use transform="matrix(0.06172839506172839,0,0,0.06172839506172839,59.1358024691358,0)" xlink:href="#J"/><use transform="matrix(0.06172839506172839,0,0,0.06172839506172839,70.24691358024691,0)" xlink:href="#B"/><use transform="matrix(0.06172839506172839,0,0,0.06172839506172839,82.5925925925926,0)" xlink:href="#K"/><use transform="matrix(0.06172839506172839,0,0,0.06172839506172839,88.76543209876543,0)" xlink:href="#L"/><use transform="matrix(0.06172839506172839,0,0,0.06172839506172839,93.64197530864197,0)" xlink:href="#z"/><use transform="matrix(0.06172839506172839,0,0,0.06172839506172839,105.98765432098766,0)" xlink:href="#E"/></g><path d="M30 0v-248h187v28H63v79h144v27H63v87h162V0H30" id="M"/><path d="M141 0L90-78 38 0H4l68-98-65-92h35l48 74 47-74h35l-64 92 68 98h-35" id="N"/><path d="M115-194c55 1 70 41 70 98S169 2 115 4C84 4 66-9 55-30l1 105H24l-1-265h31l2 30c10-21 28-34 59-34zm-8 174c40 0 45-34 45-75s-6-73-45-74c-42 0-51 32-51 76 0 43 10 73 51 73" id="O"/><g id="h"><use transform="matrix(0.06172839506172839,0,0,0.06172839506172839,0,0)" xlink:href="#M"/><use transform="matrix(0.06172839506172839,0,0,0.06172839506172839,14.814814814814813,0)" xlink:href="#N"/><use transform="matrix(0.06172839506172839,0,0,0.06172839506172839,25.925925925925924,0)" xlink:href="#O"/><use transform="matrix(0.06172839506172839,0,0,0.06172839506172839,38.2716049382716,0)" xlink:href="#L"/><use transform="matrix(0.06172839506172839,0,0,0.06172839506172839,43.148148148148145,0)" xlink:href="#I"/><use transform="matrix(0.06172839506172839,0,0,0.06172839506172839,50.49382716049382,0)" xlink:href="#C"/></g><path d="M30-248c118-7 216 8 213 122C240-48 200 0 122 0H30v-248zM63-27c89 8 146-16 146-99s-60-101-146-95v194" id="P"/><path d="M33-154v-36h34v36H33zM33 0v-36h34V0H33" id="Q"/><g id="i"><use transform="matrix(0.06172839506172839,0,0,0.06172839506172839,0,0)" xlink:href="#P"/><use transform="matrix(0.06172839506172839,0,0,0.06172839506172839,15.987654320987653,0)" xlink:href="#B"/><use transform="matrix(0.06172839506172839,0,0,0.06172839506172839,28.333333333333332,0)" xlink:href="#K"/><use transform="matrix(0.06172839506172839,0,0,0.06172839506172839,34.50617283950617,0)" xlink:href="#G"/><use transform="matrix(0.06172839506172839,0,0,0.06172839506172839,46.85185185185185,0)" xlink:href="#Q"/></g><path d="M84 4C-5 8 30-112 23-190h32v120c0 31 7 50 39 49 72-2 45-101 50-169h31l1 190h-30c-1-10 1-25-2-33-11 22-28 36-60 37" id="R"/><g id="j"><use transform="matrix(0.06172839506172839,0,0,0.06172839506172839,0,0)" xlink:href="#P"/><use transform="matrix(0.06172839506172839,0,0,0.06172839506172839,15.987654320987653,0)" xlink:href="#R"/><use transform="matrix(0.06172839506172839,0,0,0.06172839506172839,28.333333333333332,0)" xlink:href="#G"/></g><path d="M24 0v-248h52v208h133V0H24" id="S"/><path d="M35-132v-50h50v50H35zM35 0v-49h50V0H35" id="T"/><g id="k"><use transform="matrix(0.1111111111111111,0,0,0.1111111111111111,0,0)" xlink:href="#S"/><use transform="matrix(0.1111111111111111,0,0,0.1111111111111111,24.333333333333332,0)" xlink:href="#v"/><use transform="matrix(0.1111111111111111,0,0,0.1111111111111111,53.11111111111111,0)" xlink:href="#T"/></g></defs></g></svg>