<svg xmlns="http://www.w3.org/2000/svg" xmlns:xlink="http://www.w3.org/1999/xlink" xmlns:lucid="lucid" width="801" height="1178"><g transform="translate(-1288 -1988)" lucid:page-tab-id="0_0"><path d="M1338.2 2000h620v59.66h-620z" fill="#fff"/><use xlink:href="#a" transform="matrix(1,0,0,1,1338.2144582103035,2000) translate(8.486481481481528 41.20888888888889)"/><use xlink:href="#b" transform="matrix(1,0,0,1,1338.2144582103035,2000) translate(65.43709876543215 41.20888888888889)"/><use xlink:href="#c" transform="matrix(1,0,0,1,1338.2144582103035,2000) translate(272.41240740740744 41.20888888888889)"/><use xlink:href="#d" transform="matrix(1,0,0,1,1338.2144582103035,2000) translate(401.7827777777778 41.20888888888889)"/><use xlink:href="#e" transform="matrix(1,0,0,1,1338.2144582103035,2000) translate(462.1901851851852 41.20888888888889)"/><use xlink:href="#f" transform="matrix(1,0,0,1,1338.2144582103035,2000) translate(546.8815432098766 41.20888888888889)"/><use xlink:href="#g" transform="matrix(1,0,0,1,1338.2144582103035,2000) translate(583.9556172839506 41.20888888888889)"/><path d="M1323.2 2060H2060v1080h-736.8z" fill="#fff"/><path d="M2060 2060h-736.8v1080H2060" stroke="#000" stroke-width="2" fill="none"/><path d="M1607.5 2530c0 71.8-60.3 130-134.7 130-74.38 0-134.68-58.2-134.68-130s60.3-130 134.7-130c74.38 0 134.68 58.2 134.68 130z" stroke="#000" stroke-width="2" fill="#fff"/><path d="M1490 2534.8c0 30.34-27.42 54.94-61.25 54.94s-61.25-24.6-61.25-54.95c0-30.37 27.42-54.97 61.25-54.97s61.25 24.6 61.25 54.96z" stroke="#000" stroke-width="2" fill="#fff"/><path d="M1389.9 2439.83h131.26v40H1389.9z" fill="#fff"/><use xlink:href="#h" transform="matrix(1,0,0,1,1389.9087345134205,2439.828674315242) translate(44.54820987654321 22.787777777777777)"/><path d="M1521.25 2534.8c0 5.5-4.48 10-10 10s-10-4.5-10-10c0-5.54 4.48-10 10-10s10 4.46 10 10z" stroke="#000" stroke-width="2"/><path d="M1348.2 2087.48h418.6v45.04h-418.6z" fill="#fff"/><use xlink:href="#i" transform="matrix(1,0,0,1,1348.2144582103033,2087.4785842894053) translate(12.579074074074052 26.343333333333334)"/><use xlink:href="#j" transform="matrix(1,0,0,1,1348.2144582103033,2087.4785842894053) translate(247.3938888888889 26.343333333333334)"/><use xlink:href="#k" transform="matrix(1,0,0,1,1348.2144582103033,2087.4785842894053) translate(358.430925925926 26.343333333333334)"/><use xlink:href="#l" transform="matrix(1,0,0,1,1348.2144582103033,2087.4785842894053) translate(390.2087037037037 26.343333333333334)"/><path d="M1380 2140h76.25v40H1380z" fill="#fff"/><use xlink:href="#m" transform="matrix(1,0,0,1,1380,2140) translate(8.684012345679013 22.787777777777777)"/><path d="M1640 2140h76.25v40H1640z" fill="#fff"/><use xlink:href="#n" transform="matrix(1,0,0,1,1640,2140) translate(16.09141975308642 22.787777777777777)"/><path d="M1340 2180h194.3v140H1340zM1607.5 2180h194.3v140h-194.3z" stroke="#000" stroke-width="2" fill="#fff"/><path d="M1424.3 2200h106.95v112.52H1424.3z" fill="#fff"/><use xlink:href="#o" transform="matrix(1,0,0,1,1424.2879514914137,2200) translate(5.01 22.787777777777777)"/><use xlink:href="#p" transform="matrix(1,0,0,1,1424.2879514914137,2200) translate(5.01 49.45444444444445)"/><use xlink:href="#q" transform="matrix(1,0,0,1,1424.2879514914137,2200) translate(5.01 76.1211111111111)"/><path d="M1408.75 2220c0 5.52-3.64 10-8.13 10-4.5 0-8.13-4.48-8.13-10s3.63-10 8.12-10c4.5 0 8.13 4.48 8.13 10zM1408.75 2270c0 5.52-3.64 10-8.13 10-4.5 0-8.13-4.48-8.13-10s3.63-10 8.12-10c4.5 0 8.13 4.48 8.13 10zM1640 2250c0 5.52-3.64 10-8.13 10-4.5 0-8.13-4.48-8.13-10s3.64-10 8.13-10c4.5 0 8.13 4.48 8.13 10z" stroke="#000" stroke-width="2"/><path d="M1655 2230h74.46v40H1655z" fill="#fff"/><use xlink:href="#r" transform="matrix(1,0,0,1,1654.995180596618,2230) translate(20.986481481481476 22.787777777777777)"/><path d="M1338.12 2340h235v60h-235z" fill="#fff"/><use xlink:href="#s" transform="matrix(1,0,0,1,1338.123192723724,2340) translate(24.579074074074065 36.333333333333336)"/><use xlink:href="#t" transform="matrix(1,0,0,1,1338.123192723724,2340) translate(134.06055555555557 36.333333333333336)"/><use xlink:href="#u" transform="matrix(1,0,0,1,1338.123192723724,2340) translate(156.28277777777777 36.333333333333336)"/><path d="M1531.25 2514.8h41.26v40h-41.25z" fill="#fff"/><use xlink:href="#v" transform="matrix(1,0,0,1,1531.2512048508506,2514.7858428940526) translate(18.066728395061723 22.787777777777777)"/><path d="M1670 2490h121.8v80H1670z" fill="#fff"/><use xlink:href="#w" transform="matrix(1,0,0,1,1670,2490) translate(5.01 22.787777777777777)"/><use xlink:href="#x" transform="matrix(1,0,0,1,1670,2490) translate(16.059382716049384 22.787777777777777)"/><use xlink:href="#y" transform="matrix(1,0,0,1,1670,2490) translate(28.40506172839506 22.787777777777777)"/><use xlink:href="#z" transform="matrix(1,0,0,1,1670,2490) translate(46.92358024691358 22.787777777777777)"/><use xlink:href="#A" transform="matrix(1,0,0,1,1670,2490) translate(59.26925925925926 22.787777777777777)"/><use xlink:href="#B" transform="matrix(1,0,0,1,1670,2490) translate(78.40506172839505 22.787777777777777)"/><use xlink:href="#w" transform="matrix(1,0,0,1,1670,2490) translate(5.01 49.45444444444445)"/><use xlink:href="#x" transform="matrix(1,0,0,1,1670,2490) translate(16.059382716049384 49.45444444444445)"/><use xlink:href="#C" transform="matrix(1,0,0,1,1670,2490) translate(28.40506172839506 49.45444444444445)"/><use xlink:href="#z" transform="matrix(1,0,0,1,1670,2490) translate(46.92358024691358 49.45444444444445)"/><use xlink:href="#A" transform="matrix(1,0,0,1,1670,2490) translate(59.26925925925926 49.45444444444445)"/><use xlink:href="#D" transform="matrix(1,0,0,1,1670,2490) translate(78.40506172839505 49.45444444444445)"/><path d="M1338.12 2680h701.8v360h-701.8z" fill="#fff"/><path d="M2039.9 2680h-701.78v360h701.8" stroke="#000" stroke-width="2" fill="none"/><path d="M1348.13 2700h235v60h-235z" fill="#fff"/><g><use xlink:href="#s" transform="matrix(1,0,0,1,1348.1280121271425,2700) translate(24.579074074074065 36.333333333333336)"/><use xlink:href="#t" transform="matrix(1,0,0,1,1348.1280121271425,2700) translate(134.06055555555557 36.333333333333336)"/><use xlink:href="#u" transform="matrix(1,0,0,1,1348.1280121271425,2700) translate(156.28277777777777 36.333333333333336)"/></g><path d="M1636.87 2890c0 71.8-60.3 130-134.7 130-74.37 0-134.67-58.2-134.67-130s60.3-130 134.68-130c74.4 0 134.7 58.2 134.7 130z" stroke="#000" stroke-width="2" fill="#fff"/><path d="M1519.37 2894.8c0 30.34-27.42 54.94-61.25 54.94-33.82 0-61.25-24.6-61.25-54.95 0-30.37 27.43-54.97 61.25-54.97 33.83 0 61.25 24.6 61.25 54.96z" stroke="#000" stroke-width="2" fill="#fff"/><path d="M1419.28 2799.83h131.25v40h-131.25z" fill="#fff"/><g><use xlink:href="#E" transform="matrix(1,0,0,1,1419.2831320879952,2799.828674315242) translate(6.338333333333326 22.787777777777777)"/></g><path d="M1550.63 2894.8c0 5.5-4.48 10-10 10-5.53 0-10-4.5-10-10 0-5.54 4.47-10 10-10 5.52 0 10 4.46 10 10z" stroke="#000" stroke-width="2"/><path d="M1560.63 2874.8h41.26v40h-41.27z" fill="#fff"/><g><use xlink:href="#v" transform="matrix(1,0,0,1,1560.6256024254253,2874.7858428940526) translate(18.06672839506173 22.787777777777777)"/></g><path d="M1338.2 3060H2040v60h-701.8z" fill="#fff"/><path d="M2040 3060h-701.8v60H2040" stroke="#000" stroke-width="2" fill="none"/><path d="M1348.2 3070h200v40h-200z" fill="#fff"/><g><use xlink:href="#F" transform="matrix(1,0,0,1,1348.2144582103033,3070) translate(15.961790123456788 22.787777777777777)"/><use xlink:href="#G" transform="matrix(1,0,0,1,1348.2144582103033,3070) translate(137.87537037037038 22.787777777777777)"/><use xlink:href="#H" transform="matrix(1,0,0,1,1348.2144582103033,3070) translate(164.35685185185184 22.787777777777777)"/></g><defs><path d="M30 0v-248h33v221h125V0H30" id="I"/><path d="M30-248c118-7 216 8 213 122C240-48 200 0 122 0H30v-248zM63-27c89 8 146-16 146-99s-60-101-146-95v194" id="J"/><path d="M63-70H37l-4-178h34zM33 0v-35h34V0H33" id="K"/><g id="a"><use transform="matrix(0.08641975308641976,0,0,0.08641975308641976,0,0)" xlink:href="#I"/><use transform="matrix(0.08641975308641976,0,0,0.08641975308641976,17.283950617283953,0)" xlink:href="#J"/><use transform="matrix(0.08641975308641976,0,0,0.08641975308641976,39.66666666666667,0)" xlink:href="#K"/></g><path d="M24 0v-261h32V0H24" id="L"/><path d="M100-194c62-1 85 37 85 99 1 63-27 99-86 99S16-35 15-95c0-66 28-99 85-99zM99-20c44 1 53-31 53-75 0-43-8-75-51-75s-53 32-53 75 10 74 51 75" id="M"/><path d="M141-36C126-15 110 5 73 4 37 3 15-17 15-53c-1-64 63-63 125-63 3-35-9-54-41-54-24 1-41 7-42 31l-33-3c5-37 33-52 76-52 45 0 72 20 72 64v82c-1 20 7 32 28 27v20c-31 9-61-2-59-35zM48-53c0 20 12 33 32 33 41-3 63-29 60-74-43 2-92-5-92 41" id="N"/><path d="M117-194c89-4 53 116 60 194h-32v-121c0-31-8-49-39-48C34-167 62-67 57 0H25l-1-190h30c1 10-1 24 2 32 11-22 29-35 61-36" id="O"/><path d="M212-179c-10-28-35-45-73-45-59 0-87 40-87 99 0 60 29 101 89 101 43 0 62-24 78-52l27 14C228-24 195 4 139 4 59 4 22-46 18-125c-6-104 99-153 187-111 19 9 31 26 39 46" id="P"/><path d="M115-194c55 1 70 41 70 98S169 2 115 4C84 4 66-9 55-30l1 105H24l-1-265h31l2 30c10-21 28-34 59-34zm-8 174c40 0 45-34 45-75s-6-73-45-74c-42 0-51 32-51 76 0 43 10 73 51 73" id="Q"/><path d="M179-190L93 31C79 59 56 82 12 73V49c39 6 53-20 64-50L1-190h34L92-34l54-156h33" id="R"/><path d="M87 75C49 33 22-17 22-94c0-76 28-126 65-167h31c-38 41-64 92-64 168S80 34 118 75H87" id="S"/><path d="M59-47c-2 24 18 29 38 22v24C64 9 27 4 27-40v-127H5v-23h24l9-43h21v43h35v23H59v120" id="T"/><path d="M24-231v-30h32v30H24zM24 0v-190h32V0H24" id="U"/><path d="M100-194c63 0 86 42 84 106H49c0 40 14 67 53 68 26 1 43-12 49-29l28 8c-11 28-37 45-77 45C44 4 14-33 15-96c1-61 26-98 85-98zm52 81c6-60-76-77-97-28-3 7-6 17-6 28h103" id="V"/><path d="M68-38c1 34 0 65-14 84H32c9-13 17-26 17-46H33v-38h35" id="W"/><g id="b"><use transform="matrix(0.08641975308641976,0,0,0.08641975308641976,0,0)" xlink:href="#L"/><use transform="matrix(0.08641975308641976,0,0,0.08641975308641976,6.8271604938271615,0)" xlink:href="#M"/><use transform="matrix(0.08641975308641976,0,0,0.08641975308641976,24.111111111111114,0)" xlink:href="#N"/><use transform="matrix(0.08641975308641976,0,0,0.08641975308641976,41.39506172839506,0)" xlink:href="#O"/><use transform="matrix(0.08641975308641976,0,0,0.08641975308641976,58.679012345679006,0)" xlink:href="#P"/><use transform="matrix(0.08641975308641976,0,0,0.08641975308641976,81.06172839506173,0)" xlink:href="#M"/><use transform="matrix(0.08641975308641976,0,0,0.08641975308641976,98.34567901234568,0)" xlink:href="#Q"/><use transform="matrix(0.08641975308641976,0,0,0.08641975308641976,115.62962962962965,0)" xlink:href="#R"/><use transform="matrix(0.08641975308641976,0,0,0.08641975308641976,131.1851851851852,0)" xlink:href="#S"/><use transform="matrix(0.08641975308641976,0,0,0.08641975308641976,141.46913580246914,0)" xlink:href="#T"/><use transform="matrix(0.08641975308641976,0,0,0.08641975308641976,150.11111111111111,0)" xlink:href="#U"/><use transform="matrix(0.08641975308641976,0,0,0.08641975308641976,156.93827160493828,0)" xlink:href="#T"/><use transform="matrix(0.08641975308641976,0,0,0.08641975308641976,165.58024691358025,0)" xlink:href="#L"/><use transform="matrix(0.08641975308641976,0,0,0.08641975308641976,172.40740740740742,0)" xlink:href="#V"/><use transform="matrix(0.08641975308641976,0,0,0.08641975308641976,189.69135802469137,0)" xlink:href="#W"/></g><path d="M210-169c-67 3-38 105-44 169h-31v-121c0-29-5-50-35-48C34-165 62-65 56 0H25l-1-190h30c1 10-1 24 2 32 10-44 99-50 107 0 11-21 27-35 58-36 85-2 47 119 55 194h-31v-121c0-29-5-49-35-48" id="X"/><path d="M115-194c53 0 69 39 70 98 0 66-23 100-70 100C84 3 66-7 56-30L54 0H23l1-261h32v101c10-23 28-34 59-34zm-8 174c40 0 45-34 45-75 0-40-5-75-45-74-42 0-51 32-51 76 0 43 10 73 51 73" id="Y"/><path d="M114-163C36-179 61-72 57 0H25l-1-190h30c1 12-1 29 2 39 6-27 23-49 58-41v29" id="Z"/><g id="c"><use transform="matrix(0.08641975308641976,0,0,0.08641975308641976,0,0)" xlink:href="#X"/><use transform="matrix(0.08641975308641976,0,0,0.08641975308641976,25.83950617283951,0)" xlink:href="#V"/><use transform="matrix(0.08641975308641976,0,0,0.08641975308641976,43.12345679012346,0)" xlink:href="#X"/><use transform="matrix(0.08641975308641976,0,0,0.08641975308641976,68.96296296296298,0)" xlink:href="#Y"/><use transform="matrix(0.08641975308641976,0,0,0.08641975308641976,86.24691358024693,0)" xlink:href="#V"/><use transform="matrix(0.08641975308641976,0,0,0.08641975308641976,103.53086419753087,0)" xlink:href="#Z"/><use transform="matrix(0.08641975308641976,0,0,0.08641975308641976,112.08641975308643,0)" xlink:href="#W"/></g><path d="M85-194c31 0 48 13 60 33l-1-100h32l1 261h-30c-2-10 0-23-3-31C134-8 116 4 85 4 32 4 16-35 15-94c0-66 23-100 70-100zm9 24c-40 0-46 34-46 75 0 40 6 74 45 74 42 0 51-32 51-76 0-42-9-74-50-73" id="aa"/><path d="M84 4C-5 8 30-112 23-190h32v120c0 31 7 50 39 49 72-2 45-101 50-169h31l1 190h-30c-1-10 1-25-2-33-11 22-28 36-60 37" id="ab"/><g id="d"><use transform="matrix(0.08641975308641976,0,0,0.08641975308641976,0,0)" xlink:href="#aa"/><use transform="matrix(0.08641975308641976,0,0,0.08641975308641976,17.283950617283953,0)" xlink:href="#ab"/><use transform="matrix(0.08641975308641976,0,0,0.08641975308641976,34.567901234567906,0)" xlink:href="#Z"/><use transform="matrix(0.08641975308641976,0,0,0.08641975308641976,43.12345679012346,0)" xlink:href="#W"/></g><g id="e"><use transform="matrix(0.08641975308641976,0,0,0.08641975308641976,0,0)" xlink:href="#T"/><use transform="matrix(0.08641975308641976,0,0,0.08641975308641976,8.641975308641976,0)" xlink:href="#M"/><use transform="matrix(0.08641975308641976,0,0,0.08641975308641976,25.925925925925927,0)" xlink:href="#aa"/><use transform="matrix(0.08641975308641976,0,0,0.08641975308641976,43.20987654320989,0)" xlink:href="#N"/><use transform="matrix(0.08641975308641976,0,0,0.08641975308641976,60.49382716049384,0)" xlink:href="#R"/></g><path d="M16-82v-28h88v28H16" id="ac"/><path d="M18-27v-27l151-64-151-65v-27l175 74v36" id="ad"/><g id="f"><use transform="matrix(0.08641975308641976,0,0,0.08641975308641976,0,0)" xlink:href="#ac"/><use transform="matrix(0.08641975308641976,0,0,0.08641975308641976,10.283950617283951,0)" xlink:href="#ad"/></g><path d="M33-261c38 41 65 92 65 168S71 34 33 75H2C39 34 66-17 66-93S39-220 2-261h31" id="ae"/><g id="g"><use transform="matrix(0.08641975308641976,0,0,0.08641975308641976,0,0)" xlink:href="#Q"/><use transform="matrix(0.08641975308641976,0,0,0.08641975308641976,17.283950617283953,0)" xlink:href="#ae"/></g><g id="h"><use transform="matrix(0.06172839506172839,0,0,0.06172839506172839,0,0)" xlink:href="#L"/><use transform="matrix(0.06172839506172839,0,0,0.06172839506172839,4.876543209876543,0)" xlink:href="#M"/><use transform="matrix(0.06172839506172839,0,0,0.06172839506172839,17.22222222222222,0)" xlink:href="#N"/><use transform="matrix(0.06172839506172839,0,0,0.06172839506172839,29.5679012345679,0)" xlink:href="#O"/></g><path d="M24 0v-248h52v208h133V0H24" id="af"/><path d="M169-182c-1-43-94-46-97-3 18 66 151 10 154 114 3 95-165 93-204 36-6-8-10-19-12-30l50-8c3 46 112 56 116 5-17-69-150-10-154-114-4-87 153-88 188-35 5 8 8 18 10 28" id="ag"/><path d="M80-75H40l-6-173h52zM34 0v-47h51V0H34" id="ah"/><path d="M25 0v-261h50V0H25" id="ai"/><path d="M110-194c64 0 96 36 96 99 0 64-35 99-97 99-61 0-95-36-95-99 0-62 34-99 96-99zm-1 164c35 0 45-28 45-65 0-40-10-65-43-65-34 0-45 26-45 65 0 36 10 65 43 65" id="aj"/><path d="M133-34C117-15 103 5 69 4 32 3 11-16 11-54c-1-60 55-63 116-61 1-26-3-47-28-47-18 1-26 9-28 27l-52-2c7-38 36-58 82-57s74 22 75 68l1 82c-1 14 12 18 25 15v27c-30 8-71 5-69-32zm-48 3c29 0 43-24 42-57-32 0-66-3-65 30 0 17 8 27 23 27" id="ak"/><path d="M135-194c87-1 58 113 63 194h-50c-7-57 23-157-34-157-59 0-34 97-39 157H25l-1-190h47c2 12-1 28 3 38 12-26 28-41 61-42" id="al"/><path d="M67-125c0 53 21 87 73 88 37 1 54-22 65-47l45 17C233-25 199 4 140 4 58 4 20-42 15-125 8-235 124-281 211-232c18 10 29 29 36 50l-46 12c-8-25-30-41-62-41-52 0-71 34-72 86" id="am"/><path d="M135-194c53 0 70 44 70 98 0 56-19 98-73 100-31 1-45-17-59-34 3 33 2 69 2 105H25l-1-265h48c2 10 0 23 3 31 11-24 29-35 60-35zM114-30c33 0 39-31 40-66 0-38-9-64-40-64-56 0-55 130 0 130" id="an"/><path d="M123 10C108 53 80 86 19 72V37c35 8 53-11 59-39L3-190h52l48 148c12-52 28-100 44-148h51" id="ao"/><path d="M67-93c0 74 22 123 53 168H70C40 30 18-18 18-93s22-123 52-168h50c-32 44-53 94-53 168" id="ap"/><path d="M115-3C79 11 28 4 28-45v-112H4v-33h27l15-45h31v45h36v33H77v99c-1 23 16 31 38 25v30" id="aq"/><path d="M25-224v-37h50v37H25zM25 0v-190h50V0H25" id="ar"/><path d="M185-48c-13 30-37 53-82 52C43 2 14-33 14-96s30-98 90-98c62 0 83 45 84 108H66c0 31 8 55 39 56 18 0 30-7 34-22zm-45-69c5-46-57-63-70-21-2 6-4 13-4 21h74" id="as"/><path d="M76-54c-1 42 2 86-19 110H24C36 42 46 24 48 0H25v-54h51" id="at"/><g id="i"><use transform="matrix(0.07407407407407408,0,0,0.07407407407407408,0,0)" xlink:href="#af"/><use transform="matrix(0.07407407407407408,0,0,0.07407407407407408,16.222222222222225,0)" xlink:href="#ag"/><use transform="matrix(0.07407407407407408,0,0,0.07407407407407408,34,0)" xlink:href="#ah"/><use transform="matrix(0.07407407407407408,0,0,0.07407407407407408,42.814814814814824,0)" xlink:href="#ai"/><use transform="matrix(0.07407407407407408,0,0,0.07407407407407408,50.22222222222223,0)" xlink:href="#aj"/><use transform="matrix(0.07407407407407408,0,0,0.07407407407407408,66.44444444444446,0)" xlink:href="#ak"/><use transform="matrix(0.07407407407407408,0,0,0.07407407407407408,81.25925925925927,0)" xlink:href="#al"/><use transform="matrix(0.07407407407407408,0,0,0.07407407407407408,97.4814814814815,0)" xlink:href="#am"/><use transform="matrix(0.07407407407407408,0,0,0.07407407407407408,116.66666666666669,0)" xlink:href="#aj"/><use transform="matrix(0.07407407407407408,0,0,0.07407407407407408,132.8888888888889,0)" xlink:href="#an"/><use transform="matrix(0.07407407407407408,0,0,0.07407407407407408,149.11111111111114,0)" xlink:href="#ao"/><use transform="matrix(0.07407407407407408,0,0,0.07407407407407408,163.92592592592595,0)" xlink:href="#ap"/><use transform="matrix(0.07407407407407408,0,0,0.07407407407407408,172.74074074074076,0)" xlink:href="#aq"/><use transform="matrix(0.07407407407407408,0,0,0.07407407407407408,181.55555555555557,0)" xlink:href="#ar"/><use transform="matrix(0.07407407407407408,0,0,0.07407407407407408,188.962962962963,0)" xlink:href="#aq"/><use transform="matrix(0.07407407407407408,0,0,0.07407407407407408,197.7777777777778,0)" xlink:href="#ai"/><use transform="matrix(0.07407407407407408,0,0,0.07407407407407408,205.18518518518522,0)" xlink:href="#as"/><use transform="matrix(0.07407407407407408,0,0,0.07407407407407408,220.00000000000003,0)" xlink:href="#at"/></g><path d="M220-157c-53 9-28 100-34 157h-49v-107c1-27-5-49-29-50C55-147 81-57 75 0H25l-1-190h47c2 12-1 28 3 38 10-53 101-56 108 0 13-22 24-43 59-42 82 1 51 116 57 194h-49v-107c-1-25-5-48-29-50" id="au"/><path d="M135-194c52 0 70 43 70 98 0 56-19 99-73 100-30 1-46-15-58-35L72 0H24l1-261h50v104c11-23 29-37 60-37zM114-30c31 0 40-27 40-66 0-37-7-63-39-63s-41 28-41 65c0 36 8 64 40 64" id="av"/><path d="M135-150c-39-12-60 13-60 57V0H25l-1-190h47c2 13-1 29 3 40 6-28 27-53 61-41v41" id="aw"/><g id="j"><use transform="matrix(0.07407407407407408,0,0,0.07407407407407408,0,0)" xlink:href="#au"/><use transform="matrix(0.07407407407407408,0,0,0.07407407407407408,23.703703703703706,0)" xlink:href="#as"/><use transform="matrix(0.07407407407407408,0,0,0.07407407407407408,38.51851851851851,0)" xlink:href="#au"/><use transform="matrix(0.07407407407407408,0,0,0.07407407407407408,62.22222222222223,0)" xlink:href="#av"/><use transform="matrix(0.07407407407407408,0,0,0.07407407407407408,78.44444444444446,0)" xlink:href="#as"/><use transform="matrix(0.07407407407407408,0,0,0.07407407407407408,93.25925925925927,0)" xlink:href="#aw"/></g><path d="M14-72v-43h91v43H14" id="ax"/><path d="M15-22v-40l146-57-146-57v-40l181 69v56" id="ay"/><g id="k"><use transform="matrix(0.07407407407407408,0,0,0.07407407407407408,0,0)" xlink:href="#ax"/><use transform="matrix(0.07407407407407408,0,0,0.07407407407407408,8.814814814814817,0)" xlink:href="#ay"/></g><use transform="matrix(0.07407407407407408,0,0,0.07407407407407408,0,0)" xlink:href="#an" id="l"/><path d="M24-248c120-7 223 5 221 122C244-46 201 0 124 0H24v-248zM76-40c74 7 117-18 117-86 0-67-45-88-117-82v168" id="az"/><path d="M199 0l-22-63H83L61 0H9l90-248h61L250 0h-51zm-33-102l-36-108c-10 38-24 72-36 108h72" id="aA"/><path d="M136-208V0H84v-208H4v-40h212v40h-80" id="aB"/><path d="M24 0v-248h195v40H76v63h132v40H76v65h150V0H24" id="aC"/><g id="m"><use transform="matrix(0.06172839506172839,0,0,0.06172839506172839,0,0)" xlink:href="#az"/><use transform="matrix(0.06172839506172839,0,0,0.06172839506172839,15.987654320987653,0)" xlink:href="#aA"/><use transform="matrix(0.06172839506172839,0,0,0.06172839506172839,30.30864197530864,0)" xlink:href="#aB"/><use transform="matrix(0.06172839506172839,0,0,0.06172839506172839,43.82716049382716,0)" xlink:href="#aC"/></g><path d="M175 0L67-191c6 58 2 128 3 191H24v-248h59L193-55c-6-58-2-129-3-193h46V0h-61" id="aD"/><g id="n"><use transform="matrix(0.06172839506172839,0,0,0.06172839506172839,0,0)" xlink:href="#aD"/><use transform="matrix(0.06172839506172839,0,0,0.06172839506172839,15.987654320987653,0)" xlink:href="#aA"/><use transform="matrix(0.06172839506172839,0,0,0.06172839506172839,30.30864197530864,0)" xlink:href="#aB"/></g><path d="M127-220V0H93v-220H8v-28h204v28h-85" id="aE"/><g id="o"><use transform="matrix(0.06172839506172839,0,0,0.06172839506172839,0,0)" xlink:href="#aE"/><use transform="matrix(0.06172839506172839,0,0,0.06172839506172839,11.049382716049381,0)" xlink:href="#M"/><use transform="matrix(0.06172839506172839,0,0,0.06172839506172839,23.39506172839506,0)" xlink:href="#aa"/><use transform="matrix(0.06172839506172839,0,0,0.06172839506172839,35.74074074074074,0)" xlink:href="#N"/><use transform="matrix(0.06172839506172839,0,0,0.06172839506172839,48.08641975308642,0)" xlink:href="#R"/></g><g id="q"><use transform="matrix(0.06172839506172839,0,0,0.06172839506172839,0,0)" xlink:href="#aa"/><use transform="matrix(0.06172839506172839,0,0,0.06172839506172839,12.345679012345679,0)" xlink:href="#N"/><use transform="matrix(0.06172839506172839,0,0,0.06172839506172839,24.691358024691358,0)" xlink:href="#T"/><use transform="matrix(0.06172839506172839,0,0,0.06172839506172839,30.864197530864196,0)" xlink:href="#V"/><use transform="matrix(0.06172839506172839,0,0,0.06172839506172839,43.20987654320987,0)" xlink:href="#J"/><use transform="matrix(0.06172839506172839,0,0,0.06172839506172839,59.197530864197525,0)" xlink:href="#ab"/><use transform="matrix(0.06172839506172839,0,0,0.06172839506172839,71.5432098765432,0)" xlink:href="#V"/></g><path d="M133-28C103 26-5 8 13-77c13-62 24-115 90-117 29-1 46 15 56 35l19-102h32L160 0h-30zM45-64c-2 27 10 43 35 43 54-1 69-50 69-103 0-29-15-46-42-46-53-1-58 58-62 106" id="aF"/><path d="M67 3c-93-2-31-127-26-193h32L48-50c-3 39 53 32 70 12 30-34 30-101 43-152h32L157 0h-30c1-10 6-24 4-33-14 20-29 37-64 36" id="aG"/><path d="M66-151c12-25 30-51 66-40l-6 26C45-176 58-65 38 0H6l36-190h30" id="aH"/><g id="r"><use transform="matrix(0.06172839506172839,0,0,0.06172839506172839,0,0)" xlink:href="#aF"/><use transform="matrix(0.06172839506172839,0,0,0.06172839506172839,12.345679012345679,0)" xlink:href="#aG"/><use transform="matrix(0.06172839506172839,0,0,0.06172839506172839,24.691358024691358,0)" xlink:href="#aH"/></g><path d="M230 0l2-204L168 0h-37L68-204 70 0H24v-248h70l56 185 57-185h69V0h-46" id="aI"/><g id="s"><use transform="matrix(0.07407407407407408,0,0,0.07407407407407408,0,0)" xlink:href="#aI"/><use transform="matrix(0.07407407407407408,0,0,0.07407407407407408,22.148148148148152,0)" xlink:href="#as"/><use transform="matrix(0.07407407407407408,0,0,0.07407407407407408,36.96296296296297,0)" xlink:href="#au"/><use transform="matrix(0.07407407407407408,0,0,0.07407407407407408,60.66666666666667,0)" xlink:href="#av"/><use transform="matrix(0.07407407407407408,0,0,0.07407407407407408,76.8888888888889,0)" xlink:href="#as"/><use transform="matrix(0.07407407407407408,0,0,0.07407407407407408,91.70370370370371,0)" xlink:href="#aw"/></g><path d="M144 0l-44-69L55 0H2l70-98-66-92h53l41 62 40-62h54l-67 91 71 99h-54" id="aJ"/><use transform="matrix(0.07407407407407408,0,0,0.07407407407407408,0,0)" xlink:href="#aJ" id="t"/><g id="u"><use transform="matrix(0.07407407407407408,0,0,0.07407407407407408,0,0)" xlink:href="#aB"/><use transform="matrix(0.07407407407407408,0,0,0.07407407407407408,15.703703703703706,0)" xlink:href="#ar"/><use transform="matrix(0.07407407407407408,0,0,0.07407407407407408,23.111111111111114,0)" xlink:href="#aq"/><use transform="matrix(0.07407407407407408,0,0,0.07407407407407408,31.92592592592593,0)" xlink:href="#ai"/><use transform="matrix(0.07407407407407408,0,0,0.07407407407407408,39.33333333333335,0)" xlink:href="#as"/></g><path d="M6 0l50-261h32L37 0H6" id="aK"/><use transform="matrix(0.06172839506172839,0,0,0.06172839506172839,0,0)" xlink:href="#aK" id="v"/><use transform="matrix(0.06172839506172839,0,0,0.06172839506172839,0,0)" xlink:href="#L" id="w"/><path d="M26 75v-336h71v23H56V52h41v23H26" id="aL"/><use transform="matrix(0.06172839506172839,0,0,0.06172839506172839,0,0)" xlink:href="#aL" id="x"/><path d="M27 0v-27h64v-190l-56 39v-29l58-41h29v221h61V0H27" id="aM"/><use transform="matrix(0.06172839506172839,0,0,0.06172839506172839,0,0)" xlink:href="#aM" id="y"/><path d="M3 75V52h41v-290H3v-23h71V75H3" id="aN"/><use transform="matrix(0.06172839506172839,0,0,0.06172839506172839,0,0)" xlink:href="#aN" id="z"/><path d="M18-150v-26h174v26H18zm0 90v-26h174v26H18" id="aO"/><use transform="matrix(0.06172839506172839,0,0,0.06172839506172839,0,0)" xlink:href="#aO" id="A"/><use transform="matrix(0.06172839506172839,0,0,0.06172839506172839,0,0)" xlink:href="#T" id="B"/><path d="M101-251c82-7 93 87 43 132L82-64C71-53 59-42 53-27h129V0H18c2-99 128-94 128-182 0-28-16-43-45-43s-46 15-49 41l-32-3c6-41 34-60 81-64" id="aP"/><use transform="matrix(0.06172839506172839,0,0,0.06172839506172839,0,0)" xlink:href="#aP" id="C"/><use transform="matrix(0.06172839506172839,0,0,0.06172839506172839,0,0)" xlink:href="#X" id="D"/><path d="M233-177c-1 41-23 64-60 70L243 0h-38l-65-103H63V0H30v-248c88 3 205-21 203 71zM63-129c60-2 137 13 137-47 0-61-80-42-137-45v92" id="aQ"/><path d="M135-143c-3-34-86-38-87 0 15 53 115 12 119 90S17 21 10-45l28-5c4 36 97 45 98 0-10-56-113-15-118-90-4-57 82-63 122-42 12 7 21 19 24 35" id="aR"/><path d="M108 0H70L1-190h34L89-25l56-165h34" id="aS"/><g id="E"><use transform="matrix(0.06172839506172839,0,0,0.06172839506172839,0,0)" xlink:href="#aQ"/><use transform="matrix(0.06172839506172839,0,0,0.06172839506172839,15.987654320987653,0)" xlink:href="#V"/><use transform="matrix(0.06172839506172839,0,0,0.06172839506172839,28.333333333333332,0)" xlink:href="#aR"/><use transform="matrix(0.06172839506172839,0,0,0.06172839506172839,39.44444444444444,0)" xlink:href="#V"/><use transform="matrix(0.06172839506172839,0,0,0.06172839506172839,51.79012345679012,0)" xlink:href="#Z"/><use transform="matrix(0.06172839506172839,0,0,0.06172839506172839,59.1358024691358,0)" xlink:href="#aS"/><use transform="matrix(0.06172839506172839,0,0,0.06172839506172839,70.24691358024691,0)" xlink:href="#N"/><use transform="matrix(0.06172839506172839,0,0,0.06172839506172839,82.5925925925926,0)" xlink:href="#T"/><use transform="matrix(0.06172839506172839,0,0,0.06172839506172839,88.76543209876543,0)" xlink:href="#U"/><use transform="matrix(0.06172839506172839,0,0,0.06172839506172839,93.64197530864197,0)" xlink:href="#M"/><use transform="matrix(0.06172839506172839,0,0,0.06172839506172839,105.98765432098766,0)" xlink:href="#O"/></g><path d="M96-169c-40 0-48 33-48 73s9 75 48 75c24 0 41-14 43-38l32 2c-6 37-31 61-74 61-59 0-76-41-82-99-10-93 101-131 147-64 4 7 5 14 7 22l-32 3c-4-21-16-35-41-35" id="aT"/><g id="F"><use transform="matrix(0.06172839506172839,0,0,0.06172839506172839,0,0)" xlink:href="#I"/><use transform="matrix(0.06172839506172839,0,0,0.06172839506172839,12.345679012345679,0)" xlink:href="#J"/><use transform="matrix(0.06172839506172839,0,0,0.06172839506172839,28.333333333333332,0)" xlink:href="#K"/><use transform="matrix(0.06172839506172839,0,0,0.06172839506172839,34.50617283950617,0)" xlink:href="#P"/><use transform="matrix(0.06172839506172839,0,0,0.06172839506172839,50.49382716049382,0)" xlink:href="#N"/><use transform="matrix(0.06172839506172839,0,0,0.06172839506172839,62.8395061728395,0)" xlink:href="#O"/><use transform="matrix(0.06172839506172839,0,0,0.06172839506172839,75.18518518518518,0)" xlink:href="#aT"/><use transform="matrix(0.06172839506172839,0,0,0.06172839506172839,86.29629629629629,0)" xlink:href="#V"/><use transform="matrix(0.06172839506172839,0,0,0.06172839506172839,98.64197530864197,0)" xlink:href="#L"/><use transform="matrix(0.06172839506172839,0,0,0.06172839506172839,103.51851851851852,0)" xlink:href="#S"/><use transform="matrix(0.06172839506172839,0,0,0.06172839506172839,110.8641975308642,0)" xlink:href="#L"/></g><g id="G"><use transform="matrix(0.06172839506172839,0,0,0.06172839506172839,0,0)" xlink:href="#ac"/><use transform="matrix(0.06172839506172839,0,0,0.06172839506172839,7.345679012345679,0)" xlink:href="#ad"/></g><g id="H"><use transform="matrix(0.06172839506172839,0,0,0.06172839506172839,0,0)" xlink:href="#Q"/><use transform="matrix(0.06172839506172839,0,0,0.06172839506172839,12.345679012345679,0)" xlink:href="#ae"/></g></defs></g></svg>