<svg xmlns="http://www.w3.org/2000/svg" xmlns:xlink="http://www.w3.org/1999/xlink" xmlns:lucid="lucid" width="1140" height="1008"><g transform="translate(-400 -157.5999999999999)" lucid:page-tab-id="0_0"><path d="M795.2 177.6h280v968h-280z" fill="#fff"/><path d="M795.2 177.6h280v968h-280zM795.2 217.6h280M864.53 217.6v928" stroke="#000" stroke-width="2" fill="none"/><use xlink:href="#a" transform="matrix(1,0,0,1,805.1999999999999,177.5999999999999) translate(75.14999999999999 23.6)"/><use xlink:href="#b" transform="matrix(1,0,0,1,800.1999999999999,220.0999999999999) translate(0 17.1)"/><use xlink:href="#c" transform="matrix(1,0,0,1,869.5333333333333,220.0999999999999) translate(0 17.1)"/><use xlink:href="#d" transform="matrix(1,0,0,1,800.1999999999999,252.0999999999999) translate(0 17.1)"/><use xlink:href="#e" transform="matrix(1,0,0,1,869.5333333333333,252.0999999999999) translate(0 17.1)"/><use xlink:href="#f" transform="matrix(1,0,0,1,869.5333333333333,284.0999999999999) translate(0 17.1)"/><use xlink:href="#g" transform="matrix(1,0,0,1,869.5333333333333,316.0999999999999) translate(0 17.1)"/><use xlink:href="#h" transform="matrix(1,0,0,1,869.5333333333333,348.0999999999999) translate(0 17.1)"/><use xlink:href="#i" transform="matrix(1,0,0,1,869.5333333333333,380.0999999999999) translate(0 17.1)"/><use xlink:href="#j" transform="matrix(1,0,0,1,869.5333333333333,412.0999999999999) translate(0 17.1)"/><use xlink:href="#k" transform="matrix(1,0,0,1,869.5333333333333,444.0999999999999) translate(0 17.1)"/><use xlink:href="#l" transform="matrix(1,0,0,1,869.5333333333333,476.0999999999999) translate(0 17.1)"/><use xlink:href="#m" transform="matrix(1,0,0,1,869.5333333333333,508.0999999999999) translate(0 17.1)"/><use xlink:href="#n" transform="matrix(1,0,0,1,869.5333333333333,540.0999999999999) translate(0 17.1)"/><use xlink:href="#o" transform="matrix(1,0,0,1,869.5333333333333,572.0999999999999) translate(0 17.1)"/><use xlink:href="#p" transform="matrix(1,0,0,1,869.5333333333333,604.0999999999999) translate(0 17.1)"/><use xlink:href="#q" transform="matrix(1,0,0,1,869.5333333333333,636.0999999999999) translate(0 17.1)"/><use xlink:href="#r" transform="matrix(1,0,0,1,869.5333333333333,668.0999999999999) translate(0 17.1)"/><use xlink:href="#s" transform="matrix(1,0,0,1,869.5333333333333,700.0999999999999) translate(0 17.1)"/><use xlink:href="#t" transform="matrix(1,0,0,1,869.5333333333333,732.0999999999999) translate(0 17.1)"/><use xlink:href="#u" transform="matrix(1,0,0,1,869.5333333333333,764.0999999999999) translate(0 17.1)"/><use xlink:href="#v" transform="matrix(1,0,0,1,869.5333333333333,796.0999999999999) translate(0 17.1)"/><use xlink:href="#t" transform="matrix(1,0,0,1,869.5333333333333,828.0999999999999) translate(0 17.1)"/><use xlink:href="#u" transform="matrix(1,0,0,1,869.5333333333333,860.0999999999999) translate(0 17.1)"/><use xlink:href="#v" transform="matrix(1,0,0,1,869.5333333333333,892.0999999999999) translate(0 17.1)"/><use xlink:href="#w" transform="matrix(1,0,0,1,869.5333333333333,924.0999999999999) translate(0 17.1)"/><use xlink:href="#x" transform="matrix(1,0,0,1,869.5333333333333,956.0999999999999) translate(0 17.1)"/><use xlink:href="#y" transform="matrix(1,0,0,1,869.5333333333333,988.0999999999999) translate(0 17.1)"/><use xlink:href="#z" transform="matrix(1,0,0,1,869.5333333333333,1020.0999999999999) translate(0 17.1)"/><use xlink:href="#A" transform="matrix(1,0,0,1,869.5333333333333,1052.1) translate(0 17.1)"/><use xlink:href="#B" transform="matrix(1,0,0,1,869.5333333333333,1084.1) translate(0 17.1)"/><use xlink:href="#C" transform="matrix(1,0,0,1,869.5333333333333,1116.1) translate(0 17.1)"/><path d="M420 273.6h280v776H420z" fill="#fff"/><path d="M420 273.6h280v776H420zM420 313.6h280M489.33 313.6v736" stroke="#000" stroke-width="2" fill="none"/><use xlink:href="#D" transform="matrix(1,0,0,1,430,273.5999999999999) translate(59.57499999999999 23.6)"/><use xlink:href="#E" transform="matrix(1,0,0,1,494.33333333333337,316.0999999999999) translate(0 17.1)"/><use xlink:href="#F" transform="matrix(1,0,0,1,494.33333333333337,348.0999999999999) translate(0 17.1)"/><use xlink:href="#G" transform="matrix(1,0,0,1,494.33333333333337,380.0999999999999) translate(0 17.1)"/><use xlink:href="#H" transform="matrix(1,0,0,1,494.33333333333337,412.0999999999999) translate(0 17.1)"/><use xlink:href="#I" transform="matrix(1,0,0,1,494.33333333333337,444.0999999999999) translate(0 17.1)"/><use xlink:href="#J" transform="matrix(1,0,0,1,494.33333333333337,476.0999999999999) translate(0 17.1)"/><use xlink:href="#K" transform="matrix(1,0,0,1,494.33333333333337,508.0999999999999) translate(0 17.1)"/><use xlink:href="#L" transform="matrix(1,0,0,1,494.33333333333337,540.0999999999999) translate(0 17.1)"/><use xlink:href="#M" transform="matrix(1,0,0,1,494.33333333333337,572.0999999999999) translate(0 17.1)"/><use xlink:href="#N" transform="matrix(1,0,0,1,494.33333333333337,604.0999999999999) translate(0 17.1)"/><use xlink:href="#O" transform="matrix(1,0,0,1,494.33333333333337,636.0999999999999) translate(0 17.1)"/><use xlink:href="#P" transform="matrix(1,0,0,1,494.33333333333337,668.0999999999999) translate(0 17.1)"/><use xlink:href="#Q" transform="matrix(1,0,0,1,494.33333333333337,700.0999999999999) translate(0 17.1)"/><use xlink:href="#R" transform="matrix(1,0,0,1,494.33333333333337,732.0999999999999) translate(0 17.1)"/><use xlink:href="#S" transform="matrix(1,0,0,1,494.33333333333337,764.0999999999999) translate(0 17.1)"/><use xlink:href="#T" transform="matrix(1,0,0,1,494.33333333333337,796.0999999999999) translate(0 17.1)"/><use xlink:href="#U" transform="matrix(1,0,0,1,494.33333333333337,828.0999999999999) translate(0 17.1)"/><use xlink:href="#V" transform="matrix(1,0,0,1,494.33333333333337,860.0999999999999) translate(0 17.1)"/><use xlink:href="#W" transform="matrix(1,0,0,1,494.33333333333337,892.0999999999999) translate(0 17.1)"/><use xlink:href="#X" transform="matrix(1,0,0,1,494.33333333333337,924.0999999999999) translate(0 17.1)"/><use xlink:href="#Y" transform="matrix(1,0,0,1,494.33333333333337,956.0999999999999) translate(0 17.1)"/><use xlink:href="#Z" transform="matrix(1,0,0,1,494.33333333333337,988.0999999999999) translate(0 17.1)"/><use xlink:href="#aa" transform="matrix(1,0,0,1,494.33333333333337,1020.0999999999999) translate(0 17.1)"/><path d="M1160 481.6h360v360h-360z" fill="#fff"/><path d="M1160 481.6h360v360h-360zM1160 521.6h360M1246.67 521.6v320" stroke="#000" stroke-width="2" fill="none"/><use xlink:href="#ab" transform="matrix(1,0,0,1,1170,481.5999999999999) translate(109.6 23.6)"/><use xlink:href="#b" transform="matrix(1,0,0,1,1165,524.0999999999999) translate(0 17.1)"/><use xlink:href="#e" transform="matrix(1,0,0,1,1251.6666666666667,524.0999999999999) translate(0 17.1)"/><use xlink:href="#ac" transform="matrix(1,0,0,1,1251.6666666666667,556.0999999999999) translate(0 17.1)"/><use xlink:href="#ad" transform="matrix(1,0,0,1,1251.6666666666667,588.0999999999999) translate(0 17.1)"/><use xlink:href="#ae" transform="matrix(1,0,0,1,1251.6666666666667,620.0999999999999) translate(0 17.1)"/><use xlink:href="#af" transform="matrix(1,0,0,1,1251.6666666666667,652.0999999999999) translate(0 17.1)"/><use xlink:href="#ag" transform="matrix(1,0,0,1,1251.6666666666667,684.0999999999999) translate(0 17.1)"/><use xlink:href="#ah" transform="matrix(1,0,0,1,1251.6666666666667,716.0999999999999) translate(0 17.1)"/><use xlink:href="#ai" transform="matrix(1,0,0,1,1251.6666666666667,748.0999999999999) translate(0 17.1)"/><use xlink:href="#aj" transform="matrix(1,0,0,1,1251.6666666666667,780.0999999999999) translate(0 17.1)"/><use xlink:href="#ak" transform="matrix(1,0,0,1,1251.6666666666667,812.0999999999999) translate(0 17.1)"/><path d="M1077.2 661.6h63.3" stroke="#000" stroke-width="2" fill="none"/><path d="M1077.23 662.6h-1.03v-2h1.03z"/><path d="M1155.76 661.6l-14.26 4.64v-9.28z" stroke="#000" stroke-width="2"/><path d="M702 661.6h73.7" stroke="#000" stroke-width="2" fill="none"/><path d="M702.03 662.6H701v-2h1.03z"/><path d="M790.96 661.6l-14.26 4.64v-9.28z" stroke="#000" stroke-width="2"/><defs><path d="M30-248c118-7 216 8 213 122C240-48 200 0 122 0H30v-248zM63-27c89 8 146-16 146-99s-60-101-146-95v194" id="al"/><path d="M24-231v-30h32v30H24zM24 0v-190h32V0H24" id="am"/><path d="M210-169c-67 3-38 105-44 169h-31v-121c0-29-5-50-35-48C34-165 62-65 56 0H25l-1-190h30c1 10-1 24 2 32 10-44 99-50 107 0 11-21 27-35 58-36 85-2 47 119 55 194h-31v-121c0-29-5-49-35-48" id="an"/><path d="M212-179c-10-28-35-45-73-45-59 0-87 40-87 99 0 60 29 101 89 101 43 0 62-24 78-52l27 14C228-24 195 4 139 4 59 4 22-46 18-125c-6-104 99-153 187-111 19 9 31 26 39 46" id="ao"/><path d="M84 4C-5 8 30-112 23-190h32v120c0 31 7 50 39 49 72-2 45-101 50-169h31l1 190h-30c-1-10 1-25-2-33-11 22-28 36-60 37" id="ap"/><path d="M135-143c-3-34-86-38-87 0 15 53 115 12 119 90S17 21 10-45l28-5c4 36 97 45 98 0-10-56-113-15-118-90-4-57 82-63 122-42 12 7 21 19 24 35" id="aq"/><path d="M59-47c-2 24 18 29 38 22v24C64 9 27 4 27-40v-127H5v-23h24l9-43h21v43h35v23H59v120" id="ar"/><path d="M100-194c62-1 85 37 85 99 1 63-27 99-86 99S16-35 15-95c0-66 28-99 85-99zM99-20c44 1 53-31 53-75 0-43-8-75-51-75s-53 32-53 75 10 74 51 75" id="as"/><path d="M100-194c63 0 86 42 84 106H49c0 40 14 67 53 68 26 1 43-12 49-29l28 8c-11 28-37 45-77 45C44 4 14-33 15-96c1-61 26-98 85-98zm52 81c6-60-76-77-97-28-3 7-6 17-6 28h103" id="at"/><path d="M114-163C36-179 61-72 57 0H25l-1-190h30c1 12-1 29 2 39 6-27 23-49 58-41v29" id="au"/><g id="a"><use transform="matrix(0.05,0,0,0.05,0,0)" xlink:href="#al"/><use transform="matrix(0.05,0,0,0.05,12.950000000000001,0)" xlink:href="#am"/><use transform="matrix(0.05,0,0,0.05,16.900000000000002,0)" xlink:href="#an"/><use transform="matrix(0.05,0,0,0.05,31.85,0)" xlink:href="#ao"/><use transform="matrix(0.05,0,0,0.05,44.800000000000004,0)" xlink:href="#ap"/><use transform="matrix(0.05,0,0,0.05,54.800000000000004,0)" xlink:href="#aq"/><use transform="matrix(0.05,0,0,0.05,63.800000000000004,0)" xlink:href="#ar"/><use transform="matrix(0.05,0,0,0.05,68.80000000000001,0)" xlink:href="#as"/><use transform="matrix(0.05,0,0,0.05,78.80000000000001,0)" xlink:href="#an"/><use transform="matrix(0.05,0,0,0.05,93.75000000000001,0)" xlink:href="#at"/><use transform="matrix(0.05,0,0,0.05,103.75,0)" xlink:href="#au"/></g><path d="M30-248c87 1 191-15 191 75 0 78-77 80-158 76V0H30v-248zm33 125c57 0 124 11 124-50 0-59-68-47-124-48v98" id="av"/><path d="M194 0L95-120 63-95V0H30v-248h33v124l119-124h40L117-140 236 0h-42" id="aw"/><g id="b"><use transform="matrix(0.05,0,0,0.05,0,0)" xlink:href="#av"/><use transform="matrix(0.05,0,0,0.05,12,0)" xlink:href="#aw"/></g><path d="M67-125c0 53 21 87 73 88 37 1 54-22 65-47l45 17C233-25 199 4 140 4 58 4 20-42 15-125 8-235 124-281 211-232c18 10 29 29 36 50l-46 12c-8-25-30-41-62-41-52 0-71 34-72 86" id="ax"/><path d="M85 4C-2 5 27-109 22-190h50c7 57-23 150 33 157 60-5 35-97 40-157h50l1 190h-47c-2-12 1-28-3-38-12 25-28 42-61 42" id="ay"/><path d="M137-138c1-29-70-34-71-4 15 46 118 7 119 86 1 83-164 76-172 9l43-7c4 19 20 25 44 25 33 8 57-30 24-41C81-84 22-81 20-136c-2-80 154-74 161-7" id="az"/><path d="M115-3C79 11 28 4 28-45v-112H4v-33h27l15-45h31v45h36v33H77v99c-1 23 16 31 38 25v30" id="aA"/><path d="M110-194c64 0 96 36 96 99 0 64-35 99-97 99-61 0-95-36-95-99 0-62 34-99 96-99zm-1 164c35 0 45-28 45-65 0-40-10-65-43-65-34 0-45 26-45 65 0 36 10 65 43 65" id="aB"/><path d="M220-157c-53 9-28 100-34 157h-49v-107c1-27-5-49-29-50C55-147 81-57 75 0H25l-1-190h47c2 12-1 28 3 38 10-53 101-56 108 0 13-22 24-43 59-42 82 1 51 116 57 194h-49v-107c-1-25-5-48-29-50" id="aC"/><path d="M185-48c-13 30-37 53-82 52C43 2 14-33 14-96s30-98 90-98c62 0 83 45 84 108H66c0 31 8 55 39 56 18 0 30-7 34-22zm-45-69c5-46-57-63-70-21-2 6-4 13-4 21h74" id="aD"/><path d="M135-150c-39-12-60 13-60 57V0H25l-1-190h47c2 13-1 29 3 40 6-28 27-53 61-41v41" id="aE"/><path d="M195 0l-88-114-31 24V0H24v-248h52v113l112-113h60L142-143 257 0h-62" id="aF"/><path d="M123 10C108 53 80 86 19 72V37c35 8 53-11 59-39L3-190h52l48 148c12-52 28-100 44-148h51" id="aG"/><g id="c"><use transform="matrix(0.05,0,0,0.05,0,0)" xlink:href="#ax"/><use transform="matrix(0.05,0,0,0.05,12.950000000000001,0)" xlink:href="#ay"/><use transform="matrix(0.05,0,0,0.05,23.900000000000002,0)" xlink:href="#az"/><use transform="matrix(0.05,0,0,0.05,33.900000000000006,0)" xlink:href="#aA"/><use transform="matrix(0.05,0,0,0.05,39.85000000000001,0)" xlink:href="#aB"/><use transform="matrix(0.05,0,0,0.05,50.80000000000001,0)" xlink:href="#aC"/><use transform="matrix(0.05,0,0,0.05,66.80000000000001,0)" xlink:href="#aD"/><use transform="matrix(0.05,0,0,0.05,76.80000000000001,0)" xlink:href="#aE"/><use transform="matrix(0.05,0,0,0.05,83.80000000000001,0)" xlink:href="#aF"/><use transform="matrix(0.05,0,0,0.05,96.75000000000001,0)" xlink:href="#aD"/><use transform="matrix(0.05,0,0,0.05,106.75,0)" xlink:href="#aG"/><path d="M-.9.97h118.55v1.9H-.9z"/></g><path d="M63-220v92h138v28H63V0H30v-248h175v28H63" id="aH"/><g id="d"><use transform="matrix(0.05,0,0,0.05,0,0)" xlink:href="#aH"/><use transform="matrix(0.05,0,0,0.05,10.950000000000001,0)" xlink:href="#aw"/></g><path d="M143 4C61 4 22-44 18-125c-5-107 100-154 193-111 17 8 29 25 37 43l-32 9c-13-25-37-40-76-40-61 0-88 39-88 99 0 61 29 100 91 101 35 0 62-11 79-27v-45h-74v-28h105v86C228-13 192 4 143 4" id="aI"/><path d="M177-190C167-65 218 103 67 71c-23-6-38-20-44-43l32-5c15 47 100 32 89-28v-30C133-14 115 1 83 1 29 1 15-40 15-95c0-56 16-97 71-98 29-1 48 16 59 35 1-10 0-23 2-32h30zM94-22c36 0 50-32 50-73 0-42-14-75-50-75-39 0-46 34-46 75s6 73 46 73" id="aJ"/><path d="M141-36C126-15 110 5 73 4 37 3 15-17 15-53c-1-64 63-63 125-63 3-35-9-54-41-54-24 1-41 7-42 31l-33-3c5-37 33-52 76-52 45 0 72 20 72 64v82c-1 20 7 32 28 27v20c-31 9-61-2-59-35zM48-53c0 20 12 33 32 33 41-3 63-29 60-74-43 2-92-5-92 41" id="aK"/><path d="M115-194c55 1 70 41 70 98S169 2 115 4C84 4 66-9 55-30l1 105H24l-1-265h31l2 30c10-21 28-34 59-34zm-8 174c40 0 45-34 45-75s-6-73-45-74c-42 0-51 32-51 76 0 43 10 73 51 73" id="aL"/><path d="M106-169C34-169 62-67 57 0H25v-261h32l-1 103c12-21 28-36 61-36 89 0 53 116 60 194h-32v-121c2-32-8-49-39-48" id="aM"/><path d="M179-190L93 31C79 59 56 82 12 73V49c39 6 53-20 64-50L1-190h34L92-34l54-156h33" id="aN"/><g id="e"><use transform="matrix(0.05,0,0,0.05,0,0)" xlink:href="#aI"/><use transform="matrix(0.05,0,0,0.05,14,0)" xlink:href="#at"/><use transform="matrix(0.05,0,0,0.05,24,0)" xlink:href="#as"/><use transform="matrix(0.05,0,0,0.05,34,0)" xlink:href="#aJ"/><use transform="matrix(0.05,0,0,0.05,44,0)" xlink:href="#au"/><use transform="matrix(0.05,0,0,0.05,49.95,0)" xlink:href="#aK"/><use transform="matrix(0.05,0,0,0.05,59.95,0)" xlink:href="#aL"/><use transform="matrix(0.05,0,0,0.05,69.95,0)" xlink:href="#aM"/><use transform="matrix(0.05,0,0,0.05,79.95,0)" xlink:href="#aN"/><use transform="matrix(0.05,0,0,0.05,88.95,0)" xlink:href="#aw"/><use transform="matrix(0.05,0,0,0.05,100.95,0)" xlink:href="#at"/><use transform="matrix(0.05,0,0,0.05,110.95,0)" xlink:href="#aN"/></g><path d="M205 0l-28-72H64L36 0H1l101-248h38L239 0h-34zm-38-99l-47-123c-12 45-31 82-46 123h93" id="aO"/><path d="M24 0v-261h32V0H24" id="aP"/><path d="M117-194c89-4 53 116 60 194h-32v-121c0-31-8-49-39-48C34-167 62-67 57 0H25l-1-190h30c1 10-1 24 2 32 11-22 29-35 61-36" id="aQ"/><g id="f"><use transform="matrix(0.05,0,0,0.05,0,0)" xlink:href="#ao"/><use transform="matrix(0.05,0,0,0.05,12.950000000000001,0)" xlink:href="#ap"/><use transform="matrix(0.05,0,0,0.05,22.950000000000003,0)" xlink:href="#aq"/><use transform="matrix(0.05,0,0,0.05,31.950000000000003,0)" xlink:href="#as"/><use transform="matrix(0.05,0,0,0.05,41.95,0)" xlink:href="#an"/><use transform="matrix(0.05,0,0,0.05,56.900000000000006,0)" xlink:href="#ar"/><use transform="matrix(0.05,0,0,0.05,61.900000000000006,0)" xlink:href="#at"/><use transform="matrix(0.05,0,0,0.05,71.9,0)" xlink:href="#au"/><use transform="matrix(0.05,0,0,0.05,77.85000000000001,0)" xlink:href="#aO"/><use transform="matrix(0.05,0,0,0.05,89.85000000000001,0)" xlink:href="#aP"/><use transform="matrix(0.05,0,0,0.05,93.80000000000001,0)" xlink:href="#ar"/><use transform="matrix(0.05,0,0,0.05,98.80000000000001,0)" xlink:href="#at"/><use transform="matrix(0.05,0,0,0.05,108.80000000000001,0)" xlink:href="#au"/><use transform="matrix(0.05,0,0,0.05,114.75,0)" xlink:href="#aQ"/><use transform="matrix(0.05,0,0,0.05,124.75,0)" xlink:href="#aK"/><use transform="matrix(0.05,0,0,0.05,134.75,0)" xlink:href="#ar"/><use transform="matrix(0.05,0,0,0.05,139.75,0)" xlink:href="#at"/><use transform="matrix(0.05,0,0,0.05,149.75,0)" xlink:href="#aw"/><use transform="matrix(0.05,0,0,0.05,161.75,0)" xlink:href="#at"/><use transform="matrix(0.05,0,0,0.05,171.75,0)" xlink:href="#aN"/></g><path d="M127-220V0H93v-220H8v-28h204v28h-85" id="aR"/><g id="g"><use transform="matrix(0.05,0,0,0.05,0,0)" xlink:href="#aR"/><use transform="matrix(0.05,0,0,0.05,10.3,0)" xlink:href="#am"/><use transform="matrix(0.05,0,0,0.05,14.25,0)" xlink:href="#ar"/><use transform="matrix(0.05,0,0,0.05,19.25,0)" xlink:href="#aP"/><use transform="matrix(0.05,0,0,0.05,23.2,0)" xlink:href="#at"/></g><path d="M190 0L58-211 59 0H30v-248h39L202-35l-2-213h31V0h-41" id="aS"/><g id="h"><use transform="matrix(0.05,0,0,0.05,0,0)" xlink:href="#aH"/><use transform="matrix(0.05,0,0,0.05,10.950000000000001,0)" xlink:href="#am"/><use transform="matrix(0.05,0,0,0.05,14.9,0)" xlink:href="#au"/><use transform="matrix(0.05,0,0,0.05,20.85,0)" xlink:href="#aq"/><use transform="matrix(0.05,0,0,0.05,29.85,0)" xlink:href="#ar"/><use transform="matrix(0.05,0,0,0.05,34.85,0)" xlink:href="#aS"/><use transform="matrix(0.05,0,0,0.05,47.800000000000004,0)" xlink:href="#aK"/><use transform="matrix(0.05,0,0,0.05,57.800000000000004,0)" xlink:href="#an"/><use transform="matrix(0.05,0,0,0.05,72.75,0)" xlink:href="#at"/></g><path d="M240 0l2-218c-23 76-54 145-80 218h-23L58-218 59 0H30v-248h44l77 211c21-75 51-140 76-211h43V0h-30" id="aT"/><path d="M85-194c31 0 48 13 60 33l-1-100h32l1 261h-30c-2-10 0-23-3-31C134-8 116 4 85 4 32 4 16-35 15-94c0-66 23-100 70-100zm9 24c-40 0-46 34-46 75 0 40 6 74 45 74 42 0 51-32 51-76 0-42-9-74-50-73" id="aU"/><g id="i"><use transform="matrix(0.05,0,0,0.05,0,0)" xlink:href="#aT"/><use transform="matrix(0.05,0,0,0.05,14.950000000000001,0)" xlink:href="#am"/><use transform="matrix(0.05,0,0,0.05,18.900000000000002,0)" xlink:href="#aU"/><use transform="matrix(0.05,0,0,0.05,28.900000000000002,0)" xlink:href="#aU"/><use transform="matrix(0.05,0,0,0.05,38.900000000000006,0)" xlink:href="#aP"/><use transform="matrix(0.05,0,0,0.05,42.85000000000001,0)" xlink:href="#at"/><use transform="matrix(0.05,0,0,0.05,52.85,0)" xlink:href="#aS"/><use transform="matrix(0.05,0,0,0.05,65.80000000000001,0)" xlink:href="#aK"/><use transform="matrix(0.05,0,0,0.05,75.80000000000001,0)" xlink:href="#an"/><use transform="matrix(0.05,0,0,0.05,90.75000000000001,0)" xlink:href="#at"/></g><path d="M30 0v-248h33v221h125V0H30" id="aV"/><g id="j"><use transform="matrix(0.05,0,0,0.05,0,0)" xlink:href="#aV"/><use transform="matrix(0.05,0,0,0.05,10,0)" xlink:href="#aK"/><use transform="matrix(0.05,0,0,0.05,20,0)" xlink:href="#aq"/><use transform="matrix(0.05,0,0,0.05,29,0)" xlink:href="#ar"/><use transform="matrix(0.05,0,0,0.05,34,0)" xlink:href="#aS"/><use transform="matrix(0.05,0,0,0.05,46.95,0)" xlink:href="#aK"/><use transform="matrix(0.05,0,0,0.05,56.95,0)" xlink:href="#an"/><use transform="matrix(0.05,0,0,0.05,71.9,0)" xlink:href="#at"/></g><path d="M185-189c-5-48-123-54-124 2 14 75 158 14 163 119 3 78-121 87-175 55-17-10-28-26-33-46l33-7c5 56 141 63 141-1 0-78-155-14-162-118-5-82 145-84 179-34 5 7 8 16 11 25" id="aW"/><g id="k"><use transform="matrix(0.05,0,0,0.05,0,0)" xlink:href="#aS"/><use transform="matrix(0.05,0,0,0.05,12.950000000000001,0)" xlink:href="#aK"/><use transform="matrix(0.05,0,0,0.05,22.950000000000003,0)" xlink:href="#an"/><use transform="matrix(0.05,0,0,0.05,37.900000000000006,0)" xlink:href="#at"/><use transform="matrix(0.05,0,0,0.05,47.900000000000006,0)" xlink:href="#aW"/><use transform="matrix(0.05,0,0,0.05,59.900000000000006,0)" xlink:href="#ar"/><use transform="matrix(0.05,0,0,0.05,64.9,0)" xlink:href="#aN"/><use transform="matrix(0.05,0,0,0.05,73.9,0)" xlink:href="#aP"/><use transform="matrix(0.05,0,0,0.05,77.85000000000001,0)" xlink:href="#at"/></g><path d="M160-131c35 5 61 23 61 61C221 17 115-2 30 0v-248c76 3 177-17 177 60 0 33-19 50-47 57zm-97-11c50-1 110 9 110-42 0-47-63-36-110-37v79zm0 115c55-2 124 14 124-45 0-56-70-42-124-44v89" id="aX"/><g id="l"><use transform="matrix(0.05,0,0,0.05,0,0)" xlink:href="#aX"/><use transform="matrix(0.05,0,0,0.05,12,0)" xlink:href="#am"/><use transform="matrix(0.05,0,0,0.05,15.949999999999998,0)" xlink:href="#au"/><use transform="matrix(0.05,0,0,0.05,21.9,0)" xlink:href="#ar"/><use transform="matrix(0.05,0,0,0.05,26.899999999999995,0)" xlink:href="#aM"/><use transform="matrix(0.05,0,0,0.05,36.9,0)" xlink:href="#al"/><use transform="matrix(0.05,0,0,0.05,49.85,0)" xlink:href="#aK"/><use transform="matrix(0.05,0,0,0.05,59.85,0)" xlink:href="#ar"/><use transform="matrix(0.05,0,0,0.05,64.85,0)" xlink:href="#at"/></g><g id="m"><use transform="matrix(0.05,0,0,0.05,0,0)" xlink:href="#aT"/><use transform="matrix(0.05,0,0,0.05,14.950000000000001,0)" xlink:href="#aK"/><use transform="matrix(0.05,0,0,0.05,24.950000000000003,0)" xlink:href="#au"/><use transform="matrix(0.05,0,0,0.05,30.900000000000002,0)" xlink:href="#am"/><use transform="matrix(0.05,0,0,0.05,34.85,0)" xlink:href="#ar"/><use transform="matrix(0.05,0,0,0.05,39.85,0)" xlink:href="#aK"/><use transform="matrix(0.05,0,0,0.05,49.85,0)" xlink:href="#aP"/><use transform="matrix(0.05,0,0,0.05,53.800000000000004,0)" xlink:href="#aW"/><use transform="matrix(0.05,0,0,0.05,65.80000000000001,0)" xlink:href="#ar"/><use transform="matrix(0.05,0,0,0.05,70.80000000000001,0)" xlink:href="#aK"/><use transform="matrix(0.05,0,0,0.05,80.80000000000001,0)" xlink:href="#ar"/><use transform="matrix(0.05,0,0,0.05,85.80000000000001,0)" xlink:href="#ap"/><use transform="matrix(0.05,0,0,0.05,95.80000000000001,0)" xlink:href="#aq"/></g><path d="M101-234c-31-9-42 10-38 44h38v23H63V0H32v-167H5v-23h27c-7-52 17-82 69-68v24" id="aY"/><path d="M141 0L90-78 38 0H4l68-98-65-92h35l48 74 47-74h35l-64 92 68 98h-35" id="aZ"/><g id="n"><use transform="matrix(0.05,0,0,0.05,0,0)" xlink:href="#aW"/><use transform="matrix(0.05,0,0,0.05,12,0)" xlink:href="#ap"/><use transform="matrix(0.05,0,0,0.05,22,0)" xlink:href="#aY"/><use transform="matrix(0.05,0,0,0.05,26.649999999999995,0)" xlink:href="#aY"/><use transform="matrix(0.05,0,0,0.05,31.649999999999995,0)" xlink:href="#am"/><use transform="matrix(0.05,0,0,0.05,35.6,0)" xlink:href="#aZ"/></g><g id="o"><use transform="matrix(0.05,0,0,0.05,0,0)" xlink:href="#aI"/><use transform="matrix(0.05,0,0,0.05,14,0)" xlink:href="#at"/><use transform="matrix(0.05,0,0,0.05,24,0)" xlink:href="#aQ"/><use transform="matrix(0.05,0,0,0.05,34,0)" xlink:href="#aU"/><use transform="matrix(0.05,0,0,0.05,44,0)" xlink:href="#at"/><use transform="matrix(0.05,0,0,0.05,54,0)" xlink:href="#au"/></g><path d="M30 0v-248h187v28H63v79h144v27H63v87h162V0H30" id="ba"/><g id="p"><use transform="matrix(0.05,0,0,0.05,0,0)" xlink:href="#ba"/><use transform="matrix(0.05,0,0,0.05,12,0)" xlink:href="#an"/><use transform="matrix(0.05,0,0,0.05,26.950000000000003,0)" xlink:href="#aK"/><use transform="matrix(0.05,0,0,0.05,36.95,0)" xlink:href="#am"/><use transform="matrix(0.05,0,0,0.05,40.900000000000006,0)" xlink:href="#aP"/><use transform="matrix(0.05,0,0,0.05,44.85000000000001,0)" xlink:href="#aO"/><use transform="matrix(0.05,0,0,0.05,56.85,0)" xlink:href="#aU"/><use transform="matrix(0.05,0,0,0.05,66.85000000000001,0)" xlink:href="#aU"/><use transform="matrix(0.05,0,0,0.05,76.85000000000001,0)" xlink:href="#au"/><use transform="matrix(0.05,0,0,0.05,82.80000000000001,0)" xlink:href="#at"/><use transform="matrix(0.05,0,0,0.05,92.80000000000001,0)" xlink:href="#aq"/><use transform="matrix(0.05,0,0,0.05,101.80000000000001,0)" xlink:href="#aq"/></g><path d="M137-103V0h-34v-103L8-248h37l75 118 75-118h37" id="bb"/><path d="M33 0v-248h34V0H33" id="bc"/><path d="M96-169c-40 0-48 33-48 73s9 75 48 75c24 0 41-14 43-38l32 2c-6 37-31 61-74 61-59 0-76-41-82-99-10-93 101-131 147-64 4 7 5 14 7 22l-32 3c-4-21-16-35-41-35" id="bd"/><g id="q"><use transform="matrix(0.05,0,0,0.05,0,0)" xlink:href="#bb"/><use transform="matrix(0.05,0,0,0.05,10.35,0)" xlink:href="#at"/><use transform="matrix(0.05,0,0,0.05,20.35,0)" xlink:href="#aK"/><use transform="matrix(0.05,0,0,0.05,30.35,0)" xlink:href="#au"/><use transform="matrix(0.05,0,0,0.05,36.300000000000004,0)" xlink:href="#aP"/><use transform="matrix(0.05,0,0,0.05,40.25000000000001,0)" xlink:href="#aN"/><use transform="matrix(0.05,0,0,0.05,49.25000000000001,0)" xlink:href="#bc"/><use transform="matrix(0.05,0,0,0.05,54.25,0)" xlink:href="#aQ"/><use transform="matrix(0.05,0,0,0.05,64.25,0)" xlink:href="#bd"/><use transform="matrix(0.05,0,0,0.05,73.25,0)" xlink:href="#as"/><use transform="matrix(0.05,0,0,0.05,83.25,0)" xlink:href="#an"/><use transform="matrix(0.05,0,0,0.05,98.2,0)" xlink:href="#at"/></g><g id="r"><use transform="matrix(0.05,0,0,0.05,0,0)" xlink:href="#aR"/><use transform="matrix(0.05,0,0,0.05,8.950000000000001,0)" xlink:href="#as"/><use transform="matrix(0.05,0,0,0.05,18.950000000000003,0)" xlink:href="#ar"/><use transform="matrix(0.05,0,0,0.05,23.950000000000003,0)" xlink:href="#aK"/><use transform="matrix(0.05,0,0,0.05,33.95,0)" xlink:href="#aP"/><use transform="matrix(0.05,0,0,0.05,37.900000000000006,0)" xlink:href="#ao"/><use transform="matrix(0.05,0,0,0.05,50.85000000000001,0)" xlink:href="#aM"/><use transform="matrix(0.05,0,0,0.05,60.85,0)" xlink:href="#am"/><use transform="matrix(0.05,0,0,0.05,64.80000000000001,0)" xlink:href="#aP"/><use transform="matrix(0.05,0,0,0.05,68.75000000000001,0)" xlink:href="#aU"/><use transform="matrix(0.05,0,0,0.05,78.75000000000001,0)" xlink:href="#au"/><use transform="matrix(0.05,0,0,0.05,84.70000000000002,0)" xlink:href="#at"/><use transform="matrix(0.05,0,0,0.05,94.70000000000002,0)" xlink:href="#aQ"/></g><path d="M115-194c53 0 69 39 70 98 0 66-23 100-70 100C84 3 66-7 56-30L54 0H23l1-261h32v101c10-23 28-34 59-34zm-8 174c40 0 45-34 45-75 0-40-5-75-45-74-42 0-51 32-51 76 0 43 10 73 51 73" id="be"/><path d="M197 0v-115H63V0H30v-248h33v105h134v-105h34V0h-34" id="bf"/><g id="s"><use transform="matrix(0.05,0,0,0.05,0,0)" xlink:href="#aS"/><use transform="matrix(0.05,0,0,0.05,12.950000000000001,0)" xlink:href="#ap"/><use transform="matrix(0.05,0,0,0.05,22.950000000000003,0)" xlink:href="#an"/><use transform="matrix(0.05,0,0,0.05,37.900000000000006,0)" xlink:href="#be"/><use transform="matrix(0.05,0,0,0.05,47.900000000000006,0)" xlink:href="#at"/><use transform="matrix(0.05,0,0,0.05,57.900000000000006,0)" xlink:href="#au"/><use transform="matrix(0.05,0,0,0.05,63.85,0)" xlink:href="#ao"/><use transform="matrix(0.05,0,0,0.05,76.80000000000001,0)" xlink:href="#aM"/><use transform="matrix(0.05,0,0,0.05,86.80000000000001,0)" xlink:href="#am"/><use transform="matrix(0.05,0,0,0.05,90.75000000000001,0)" xlink:href="#aP"/><use transform="matrix(0.05,0,0,0.05,94.70000000000002,0)" xlink:href="#aU"/><use transform="matrix(0.05,0,0,0.05,104.7,0)" xlink:href="#au"/><use transform="matrix(0.05,0,0,0.05,110.65000000000003,0)" xlink:href="#at"/><use transform="matrix(0.05,0,0,0.05,120.65000000000003,0)" xlink:href="#aQ"/><use transform="matrix(0.05,0,0,0.05,130.65000000000003,0)" xlink:href="#aO"/><use transform="matrix(0.05,0,0,0.05,142.65000000000003,0)" xlink:href="#ar"/><use transform="matrix(0.05,0,0,0.05,147.65000000000003,0)" xlink:href="#bf"/><use transform="matrix(0.05,0,0,0.05,160.60000000000002,0)" xlink:href="#as"/><use transform="matrix(0.05,0,0,0.05,170.60000000000002,0)" xlink:href="#an"/><use transform="matrix(0.05,0,0,0.05,185.55,0)" xlink:href="#at"/></g><g id="t"><use transform="matrix(0.05,0,0,0.05,0,0)" xlink:href="#ba"/><use transform="matrix(0.05,0,0,0.05,12,0)" xlink:href="#aQ"/><use transform="matrix(0.05,0,0,0.05,22,0)" xlink:href="#aJ"/><use transform="matrix(0.05,0,0,0.05,32,0)" xlink:href="#aP"/><use transform="matrix(0.05,0,0,0.05,35.95,0)" xlink:href="#am"/><use transform="matrix(0.05,0,0,0.05,39.900000000000006,0)" xlink:href="#aq"/><use transform="matrix(0.05,0,0,0.05,48.900000000000006,0)" xlink:href="#aM"/><use transform="matrix(0.05,0,0,0.05,58.900000000000006,0)" xlink:href="#ba"/><use transform="matrix(0.05,0,0,0.05,70.9,0)" xlink:href="#aU"/><use transform="matrix(0.05,0,0,0.05,80.9,0)" xlink:href="#ap"/><use transform="matrix(0.05,0,0,0.05,90.9,0)" xlink:href="#bd"/><use transform="matrix(0.05,0,0,0.05,99.9,0)" xlink:href="#aK"/><use transform="matrix(0.05,0,0,0.05,109.9,0)" xlink:href="#ar"/><use transform="matrix(0.05,0,0,0.05,114.9,0)" xlink:href="#am"/><use transform="matrix(0.05,0,0,0.05,118.85000000000001,0)" xlink:href="#as"/><use transform="matrix(0.05,0,0,0.05,128.85000000000002,0)" xlink:href="#aQ"/></g><g id="u"><use transform="matrix(0.05,0,0,0.05,0,0)" xlink:href="#aW"/><use transform="matrix(0.05,0,0,0.05,12,0)" xlink:href="#aL"/><use transform="matrix(0.05,0,0,0.05,22,0)" xlink:href="#aK"/><use transform="matrix(0.05,0,0,0.05,32,0)" xlink:href="#aQ"/><use transform="matrix(0.05,0,0,0.05,42,0)" xlink:href="#am"/><use transform="matrix(0.05,0,0,0.05,45.95,0)" xlink:href="#aq"/><use transform="matrix(0.05,0,0,0.05,54.95,0)" xlink:href="#aM"/><use transform="matrix(0.05,0,0,0.05,64.95,0)" xlink:href="#ba"/><use transform="matrix(0.05,0,0,0.05,76.95,0)" xlink:href="#aU"/><use transform="matrix(0.05,0,0,0.05,86.95,0)" xlink:href="#ap"/><use transform="matrix(0.05,0,0,0.05,96.95,0)" xlink:href="#bd"/><use transform="matrix(0.05,0,0,0.05,105.95,0)" xlink:href="#aK"/><use transform="matrix(0.05,0,0,0.05,115.95,0)" xlink:href="#ar"/><use transform="matrix(0.05,0,0,0.05,120.95,0)" xlink:href="#am"/><use transform="matrix(0.05,0,0,0.05,124.9,0)" xlink:href="#as"/><use transform="matrix(0.05,0,0,0.05,134.9,0)" xlink:href="#aQ"/></g><g id="v"><use transform="matrix(0.05,0,0,0.05,0,0)" xlink:href="#aH"/><use transform="matrix(0.05,0,0,0.05,10.950000000000001,0)" xlink:href="#au"/><use transform="matrix(0.05,0,0,0.05,16.900000000000002,0)" xlink:href="#at"/><use transform="matrix(0.05,0,0,0.05,26.900000000000002,0)" xlink:href="#aQ"/><use transform="matrix(0.05,0,0,0.05,36.900000000000006,0)" xlink:href="#bd"/><use transform="matrix(0.05,0,0,0.05,45.900000000000006,0)" xlink:href="#aM"/><use transform="matrix(0.05,0,0,0.05,55.900000000000006,0)" xlink:href="#ba"/><use transform="matrix(0.05,0,0,0.05,67.9,0)" xlink:href="#aU"/><use transform="matrix(0.05,0,0,0.05,77.9,0)" xlink:href="#ap"/><use transform="matrix(0.05,0,0,0.05,87.9,0)" xlink:href="#bd"/><use transform="matrix(0.05,0,0,0.05,96.9,0)" xlink:href="#aK"/><use transform="matrix(0.05,0,0,0.05,106.9,0)" xlink:href="#ar"/><use transform="matrix(0.05,0,0,0.05,111.9,0)" xlink:href="#am"/><use transform="matrix(0.05,0,0,0.05,115.85000000000001,0)" xlink:href="#as"/><use transform="matrix(0.05,0,0,0.05,125.85000000000001,0)" xlink:href="#aQ"/></g><path d="M140-251c81 0 123 46 123 126C263-46 219 4 140 4 59 4 17-45 17-125s42-126 123-126zm0 227c63 0 89-41 89-101s-29-99-89-99c-61 0-89 39-89 99S79-25 140-24" id="bg"/><path d="M206 0h-36l-40-164L89 0H53L-1-190h32L70-26l43-164h34l41 164 42-164h31" id="bh"/><g id="w"><use transform="matrix(0.05,0,0,0.05,0,0)" xlink:href="#bf"/><use transform="matrix(0.05,0,0,0.05,12.950000000000001,0)" xlink:href="#as"/><use transform="matrix(0.05,0,0,0.05,22.950000000000003,0)" xlink:href="#ap"/><use transform="matrix(0.05,0,0,0.05,32.95,0)" xlink:href="#aq"/><use transform="matrix(0.05,0,0,0.05,41.95,0)" xlink:href="#at"/><use transform="matrix(0.05,0,0,0.05,51.95,0)" xlink:href="#bg"/><use transform="matrix(0.05,0,0,0.05,65.95,0)" xlink:href="#bh"/><use transform="matrix(0.05,0,0,0.05,78.9,0)" xlink:href="#aQ"/><use transform="matrix(0.05,0,0,0.05,88.9,0)" xlink:href="#at"/><use transform="matrix(0.05,0,0,0.05,98.9,0)" xlink:href="#au"/><use transform="matrix(0.05,0,0,0.05,104.85000000000001,0)" xlink:href="#aH"/><use transform="matrix(0.05,0,0,0.05,115.80000000000001,0)" xlink:href="#aP"/><use transform="matrix(0.05,0,0,0.05,119.75,0)" xlink:href="#aK"/><use transform="matrix(0.05,0,0,0.05,129.75,0)" xlink:href="#aJ"/></g><g id="x"><use transform="matrix(0.05,0,0,0.05,0,0)" xlink:href="#aS"/><use transform="matrix(0.05,0,0,0.05,12.950000000000001,0)" xlink:href="#ap"/><use transform="matrix(0.05,0,0,0.05,22.950000000000003,0)" xlink:href="#an"/><use transform="matrix(0.05,0,0,0.05,37.900000000000006,0)" xlink:href="#be"/><use transform="matrix(0.05,0,0,0.05,47.900000000000006,0)" xlink:href="#at"/><use transform="matrix(0.05,0,0,0.05,57.900000000000006,0)" xlink:href="#au"/><use transform="matrix(0.05,0,0,0.05,63.85,0)" xlink:href="#ao"/><use transform="matrix(0.05,0,0,0.05,76.80000000000001,0)" xlink:href="#aK"/><use transform="matrix(0.05,0,0,0.05,86.80000000000001,0)" xlink:href="#au"/><use transform="matrix(0.05,0,0,0.05,92.75000000000001,0)" xlink:href="#aq"/><use transform="matrix(0.05,0,0,0.05,101.75000000000001,0)" xlink:href="#bg"/><use transform="matrix(0.05,0,0,0.05,115.75,0)" xlink:href="#bh"/><use transform="matrix(0.05,0,0,0.05,128.70000000000002,0)" xlink:href="#aQ"/><use transform="matrix(0.05,0,0,0.05,138.70000000000002,0)" xlink:href="#at"/><use transform="matrix(0.05,0,0,0.05,148.70000000000002,0)" xlink:href="#aU"/></g><path d="M27 0v-27h64v-190l-56 39v-29l58-41h29v221h61V0H27" id="bi"/><g id="y"><use transform="matrix(0.05,0,0,0.05,0,0)" xlink:href="#aO"/><use transform="matrix(0.05,0,0,0.05,12,0)" xlink:href="#aU"/><use transform="matrix(0.05,0,0,0.05,22,0)" xlink:href="#aU"/><use transform="matrix(0.05,0,0,0.05,32,0)" xlink:href="#au"/><use transform="matrix(0.05,0,0,0.05,37.95,0)" xlink:href="#at"/><use transform="matrix(0.05,0,0,0.05,47.95,0)" xlink:href="#aq"/><use transform="matrix(0.05,0,0,0.05,56.95,0)" xlink:href="#aq"/><use transform="matrix(0.05,0,0,0.05,65.95,0)" xlink:href="#aV"/><use transform="matrix(0.05,0,0,0.05,75.95,0)" xlink:href="#am"/><use transform="matrix(0.05,0,0,0.05,79.9,0)" xlink:href="#aQ"/><use transform="matrix(0.05,0,0,0.05,89.9,0)" xlink:href="#at"/><use transform="matrix(0.05,0,0,0.05,99.9,0)" xlink:href="#bi"/></g><path d="M101-251c82-7 93 87 43 132L82-64C71-53 59-42 53-27h129V0H18c2-99 128-94 128-182 0-28-16-43-45-43s-46 15-49 41l-32-3c6-41 34-60 81-64" id="bj"/><g id="z"><use transform="matrix(0.05,0,0,0.05,0,0)" xlink:href="#aO"/><use transform="matrix(0.05,0,0,0.05,12,0)" xlink:href="#aU"/><use transform="matrix(0.05,0,0,0.05,22,0)" xlink:href="#aU"/><use transform="matrix(0.05,0,0,0.05,32,0)" xlink:href="#au"/><use transform="matrix(0.05,0,0,0.05,37.95,0)" xlink:href="#at"/><use transform="matrix(0.05,0,0,0.05,47.95,0)" xlink:href="#aq"/><use transform="matrix(0.05,0,0,0.05,56.95,0)" xlink:href="#aq"/><use transform="matrix(0.05,0,0,0.05,65.95,0)" xlink:href="#aV"/><use transform="matrix(0.05,0,0,0.05,75.95,0)" xlink:href="#am"/><use transform="matrix(0.05,0,0,0.05,79.9,0)" xlink:href="#aQ"/><use transform="matrix(0.05,0,0,0.05,89.9,0)" xlink:href="#at"/><use transform="matrix(0.05,0,0,0.05,99.9,0)" xlink:href="#bj"/></g><g id="A"><use transform="matrix(0.05,0,0,0.05,0,0)" xlink:href="#av"/><use transform="matrix(0.05,0,0,0.05,12,0)" xlink:href="#aM"/><use transform="matrix(0.05,0,0,0.05,22,0)" xlink:href="#as"/><use transform="matrix(0.05,0,0,0.05,32,0)" xlink:href="#aQ"/><use transform="matrix(0.05,0,0,0.05,42,0)" xlink:href="#at"/></g><g id="B"><use transform="matrix(0.05,0,0,0.05,0,0)" xlink:href="#al"/><use transform="matrix(0.05,0,0,0.05,12.950000000000001,0)" xlink:href="#aK"/><use transform="matrix(0.05,0,0,0.05,22.950000000000003,0)" xlink:href="#ar"/><use transform="matrix(0.05,0,0,0.05,27.950000000000003,0)" xlink:href="#at"/><use transform="matrix(0.05,0,0,0.05,37.95,0)" xlink:href="#aH"/><use transform="matrix(0.05,0,0,0.05,48.900000000000006,0)" xlink:href="#am"/><use transform="matrix(0.05,0,0,0.05,52.85,0)" xlink:href="#au"/><use transform="matrix(0.05,0,0,0.05,58.80000000000001,0)" xlink:href="#aq"/><use transform="matrix(0.05,0,0,0.05,67.80000000000001,0)" xlink:href="#ar"/><use transform="matrix(0.05,0,0,0.05,72.80000000000001,0)" xlink:href="#av"/><use transform="matrix(0.05,0,0,0.05,84.80000000000001,0)" xlink:href="#ap"/><use transform="matrix(0.05,0,0,0.05,94.80000000000001,0)" xlink:href="#au"/><use transform="matrix(0.05,0,0,0.05,100.75000000000001,0)" xlink:href="#bd"/><use transform="matrix(0.05,0,0,0.05,109.75,0)" xlink:href="#aM"/><use transform="matrix(0.05,0,0,0.05,119.75,0)" xlink:href="#aK"/><use transform="matrix(0.05,0,0,0.05,129.75,0)" xlink:href="#aq"/><use transform="matrix(0.05,0,0,0.05,138.75,0)" xlink:href="#at"/></g><g id="C"><use transform="matrix(0.05,0,0,0.05,0,0)" xlink:href="#ao"/><use transform="matrix(0.05,0,0,0.05,12.950000000000001,0)" xlink:href="#as"/><use transform="matrix(0.05,0,0,0.05,22.950000000000003,0)" xlink:href="#an"/><use transform="matrix(0.05,0,0,0.05,37.900000000000006,0)" xlink:href="#an"/><use transform="matrix(0.05,0,0,0.05,52.85,0)" xlink:href="#ap"/><use transform="matrix(0.05,0,0,0.05,62.85,0)" xlink:href="#ar"/><use transform="matrix(0.05,0,0,0.05,67.85000000000001,0)" xlink:href="#at"/><use transform="matrix(0.05,0,0,0.05,77.85000000000001,0)" xlink:href="#al"/><use transform="matrix(0.05,0,0,0.05,90.80000000000001,0)" xlink:href="#am"/><use transform="matrix(0.05,0,0,0.05,94.75000000000001,0)" xlink:href="#aq"/><use transform="matrix(0.05,0,0,0.05,103.75,0)" xlink:href="#ar"/><use transform="matrix(0.05,0,0,0.05,108.75,0)" xlink:href="#aK"/><use transform="matrix(0.05,0,0,0.05,118.75,0)" xlink:href="#aQ"/><use transform="matrix(0.05,0,0,0.05,128.75,0)" xlink:href="#bd"/><use transform="matrix(0.05,0,0,0.05,137.75,0)" xlink:href="#at"/></g><g id="D"><use transform="matrix(0.05,0,0,0.05,0,0)" xlink:href="#aH"/><use transform="matrix(0.05,0,0,0.05,10.950000000000001,0)" xlink:href="#aK"/><use transform="matrix(0.05,0,0,0.05,20.950000000000003,0)" xlink:href="#bd"/><use transform="matrix(0.05,0,0,0.05,29.950000000000003,0)" xlink:href="#ar"/><use transform="matrix(0.05,0,0,0.05,34.95,0)" xlink:href="#bc"/><use transform="matrix(0.05,0,0,0.05,39.95,0)" xlink:href="#aQ"/><use transform="matrix(0.05,0,0,0.05,49.95,0)" xlink:href="#ar"/><use transform="matrix(0.05,0,0,0.05,54.95,0)" xlink:href="#at"/><use transform="matrix(0.05,0,0,0.05,64.95,0)" xlink:href="#au"/><use transform="matrix(0.05,0,0,0.05,70.9,0)" xlink:href="#aQ"/><use transform="matrix(0.05,0,0,0.05,80.9,0)" xlink:href="#at"/><use transform="matrix(0.05,0,0,0.05,90.9,0)" xlink:href="#ar"/><use transform="matrix(0.05,0,0,0.05,95.9,0)" xlink:href="#aW"/><use transform="matrix(0.05,0,0,0.05,107.9,0)" xlink:href="#aK"/><use transform="matrix(0.05,0,0,0.05,117.9,0)" xlink:href="#aP"/><use transform="matrix(0.05,0,0,0.05,121.85000000000001,0)" xlink:href="#at"/><use transform="matrix(0.05,0,0,0.05,131.85000000000002,0)" xlink:href="#aq"/></g><g id="E"><use transform="matrix(0.05,0,0,0.05,0,0)" xlink:href="#av"/><use transform="matrix(0.05,0,0,0.05,12,0)" xlink:href="#au"/><use transform="matrix(0.05,0,0,0.05,17.95,0)" xlink:href="#as"/><use transform="matrix(0.05,0,0,0.05,27.950000000000003,0)" xlink:href="#aU"/><use transform="matrix(0.05,0,0,0.05,37.95,0)" xlink:href="#ap"/><use transform="matrix(0.05,0,0,0.05,47.95,0)" xlink:href="#bd"/><use transform="matrix(0.05,0,0,0.05,56.95,0)" xlink:href="#ar"/><use transform="matrix(0.05,0,0,0.05,61.95,0)" xlink:href="#aw"/><use transform="matrix(0.05,0,0,0.05,73.95,0)" xlink:href="#at"/><use transform="matrix(0.05,0,0,0.05,83.95,0)" xlink:href="#aN"/></g><g id="F"><use transform="matrix(0.05,0,0,0.05,0,0)" xlink:href="#bg"/><use transform="matrix(0.05,0,0,0.05,14,0)" xlink:href="#au"/><use transform="matrix(0.05,0,0,0.05,19.95,0)" xlink:href="#aU"/><use transform="matrix(0.05,0,0,0.05,29.950000000000003,0)" xlink:href="#at"/><use transform="matrix(0.05,0,0,0.05,39.95,0)" xlink:href="#au"/><use transform="matrix(0.05,0,0,0.05,45.900000000000006,0)" xlink:href="#al"/><use transform="matrix(0.05,0,0,0.05,58.85,0)" xlink:href="#aK"/><use transform="matrix(0.05,0,0,0.05,68.85000000000001,0)" xlink:href="#ar"/><use transform="matrix(0.05,0,0,0.05,73.85000000000001,0)" xlink:href="#at"/><use transform="matrix(0.05,0,0,0.05,83.85000000000001,0)" xlink:href="#aw"/><use transform="matrix(0.05,0,0,0.05,95.85000000000001,0)" xlink:href="#at"/><use transform="matrix(0.05,0,0,0.05,105.85000000000001,0)" xlink:href="#aN"/></g><g id="G"><use transform="matrix(0.05,0,0,0.05,0,0)" xlink:href="#al"/><use transform="matrix(0.05,0,0,0.05,12.950000000000001,0)" xlink:href="#ap"/><use transform="matrix(0.05,0,0,0.05,22.950000000000003,0)" xlink:href="#at"/><use transform="matrix(0.05,0,0,0.05,32.95,0)" xlink:href="#al"/><use transform="matrix(0.05,0,0,0.05,45.900000000000006,0)" xlink:href="#aK"/><use transform="matrix(0.05,0,0,0.05,55.900000000000006,0)" xlink:href="#ar"/><use transform="matrix(0.05,0,0,0.05,60.900000000000006,0)" xlink:href="#at"/><use transform="matrix(0.05,0,0,0.05,70.9,0)" xlink:href="#aw"/><use transform="matrix(0.05,0,0,0.05,82.9,0)" xlink:href="#at"/><use transform="matrix(0.05,0,0,0.05,92.9,0)" xlink:href="#aN"/></g><g id="H"><use transform="matrix(0.05,0,0,0.05,0,0)" xlink:href="#aW"/><use transform="matrix(0.05,0,0,0.05,12,0)" xlink:href="#aM"/><use transform="matrix(0.05,0,0,0.05,22,0)" xlink:href="#am"/><use transform="matrix(0.05,0,0,0.05,25.950000000000003,0)" xlink:href="#aL"/><use transform="matrix(0.05,0,0,0.05,35.95,0)" xlink:href="#al"/><use transform="matrix(0.05,0,0,0.05,48.900000000000006,0)" xlink:href="#aK"/><use transform="matrix(0.05,0,0,0.05,58.900000000000006,0)" xlink:href="#ar"/><use transform="matrix(0.05,0,0,0.05,63.900000000000006,0)" xlink:href="#at"/><use transform="matrix(0.05,0,0,0.05,73.9,0)" xlink:href="#aw"/><use transform="matrix(0.05,0,0,0.05,85.9,0)" xlink:href="#at"/><use transform="matrix(0.05,0,0,0.05,95.9,0)" xlink:href="#aN"/></g><g id="I"><use transform="matrix(0.05,0,0,0.05,0,0)" xlink:href="#ao"/><use transform="matrix(0.05,0,0,0.05,12.950000000000001,0)" xlink:href="#ap"/><use transform="matrix(0.05,0,0,0.05,22.950000000000003,0)" xlink:href="#aq"/><use transform="matrix(0.05,0,0,0.05,31.950000000000003,0)" xlink:href="#ar"/><use transform="matrix(0.05,0,0,0.05,36.95,0)" xlink:href="#as"/><use transform="matrix(0.05,0,0,0.05,46.95,0)" xlink:href="#an"/><use transform="matrix(0.05,0,0,0.05,61.900000000000006,0)" xlink:href="#at"/><use transform="matrix(0.05,0,0,0.05,71.9,0)" xlink:href="#au"/><use transform="matrix(0.05,0,0,0.05,77.85000000000001,0)" xlink:href="#aw"/><use transform="matrix(0.05,0,0,0.05,89.85000000000001,0)" xlink:href="#at"/><use transform="matrix(0.05,0,0,0.05,99.85000000000001,0)" xlink:href="#aN"/></g><g id="J"><use transform="matrix(0.05,0,0,0.05,0,0)" xlink:href="#av"/><use transform="matrix(0.05,0,0,0.05,12,0)" xlink:href="#au"/><use transform="matrix(0.05,0,0,0.05,17.95,0)" xlink:href="#as"/><use transform="matrix(0.05,0,0,0.05,27.950000000000003,0)" xlink:href="#an"/><use transform="matrix(0.05,0,0,0.05,42.9,0)" xlink:href="#as"/><use transform="matrix(0.05,0,0,0.05,52.900000000000006,0)" xlink:href="#ar"/><use transform="matrix(0.05,0,0,0.05,57.900000000000006,0)" xlink:href="#am"/><use transform="matrix(0.05,0,0,0.05,61.85,0)" xlink:href="#as"/><use transform="matrix(0.05,0,0,0.05,71.85,0)" xlink:href="#aQ"/><use transform="matrix(0.05,0,0,0.05,81.85,0)" xlink:href="#aw"/><use transform="matrix(0.05,0,0,0.05,93.85,0)" xlink:href="#at"/><use transform="matrix(0.05,0,0,0.05,103.84999999999998,0)" xlink:href="#aN"/></g><g id="K"><use transform="matrix(0.05,0,0,0.05,0,0)" xlink:href="#ao"/><use transform="matrix(0.05,0,0,0.05,12.950000000000001,0)" xlink:href="#ap"/><use transform="matrix(0.05,0,0,0.05,22.950000000000003,0)" xlink:href="#au"/><use transform="matrix(0.05,0,0,0.05,28.900000000000002,0)" xlink:href="#au"/><use transform="matrix(0.05,0,0,0.05,34.85,0)" xlink:href="#at"/><use transform="matrix(0.05,0,0,0.05,44.85,0)" xlink:href="#aQ"/><use transform="matrix(0.05,0,0,0.05,54.85,0)" xlink:href="#bd"/><use transform="matrix(0.05,0,0,0.05,63.85,0)" xlink:href="#aN"/><use transform="matrix(0.05,0,0,0.05,72.85,0)" xlink:href="#aw"/><use transform="matrix(0.05,0,0,0.05,84.85,0)" xlink:href="#at"/><use transform="matrix(0.05,0,0,0.05,94.85,0)" xlink:href="#aN"/></g><g id="L"><use transform="matrix(0.05,0,0,0.05,0,0)" xlink:href="#aW"/><use transform="matrix(0.05,0,0,0.05,12,0)" xlink:href="#aK"/><use transform="matrix(0.05,0,0,0.05,22,0)" xlink:href="#aP"/><use transform="matrix(0.05,0,0,0.05,25.950000000000003,0)" xlink:href="#at"/><use transform="matrix(0.05,0,0,0.05,35.95,0)" xlink:href="#aq"/><use transform="matrix(0.05,0,0,0.05,44.95,0)" xlink:href="#aR"/><use transform="matrix(0.05,0,0,0.05,53.900000000000006,0)" xlink:href="#at"/><use transform="matrix(0.05,0,0,0.05,63.900000000000006,0)" xlink:href="#au"/><use transform="matrix(0.05,0,0,0.05,69.85000000000001,0)" xlink:href="#au"/><use transform="matrix(0.05,0,0,0.05,75.80000000000001,0)" xlink:href="#am"/><use transform="matrix(0.05,0,0,0.05,79.75000000000001,0)" xlink:href="#ar"/><use transform="matrix(0.05,0,0,0.05,84.75000000000001,0)" xlink:href="#as"/><use transform="matrix(0.05,0,0,0.05,94.75000000000001,0)" xlink:href="#au"/><use transform="matrix(0.05,0,0,0.05,100.70000000000002,0)" xlink:href="#aN"/><use transform="matrix(0.05,0,0,0.05,109.7,0)" xlink:href="#aw"/><use transform="matrix(0.05,0,0,0.05,121.7,0)" xlink:href="#at"/><use transform="matrix(0.05,0,0,0.05,131.70000000000002,0)" xlink:href="#aN"/></g><g id="M"><use transform="matrix(0.05,0,0,0.05,0,0)" xlink:href="#aW"/><use transform="matrix(0.05,0,0,0.05,12,0)" xlink:href="#aK"/><use transform="matrix(0.05,0,0,0.05,22,0)" xlink:href="#aP"/><use transform="matrix(0.05,0,0,0.05,25.950000000000003,0)" xlink:href="#at"/><use transform="matrix(0.05,0,0,0.05,35.95,0)" xlink:href="#aq"/><use transform="matrix(0.05,0,0,0.05,44.95,0)" xlink:href="#bg"/><use transform="matrix(0.05,0,0,0.05,58.95,0)" xlink:href="#au"/><use transform="matrix(0.05,0,0,0.05,64.9,0)" xlink:href="#aU"/><use transform="matrix(0.05,0,0,0.05,74.9,0)" xlink:href="#at"/><use transform="matrix(0.05,0,0,0.05,84.9,0)" xlink:href="#au"/><use transform="matrix(0.05,0,0,0.05,90.85000000000001,0)" xlink:href="#aS"/><use transform="matrix(0.05,0,0,0.05,103.80000000000001,0)" xlink:href="#ap"/><use transform="matrix(0.05,0,0,0.05,113.80000000000001,0)" xlink:href="#an"/><use transform="matrix(0.05,0,0,0.05,128.75,0)" xlink:href="#be"/><use transform="matrix(0.05,0,0,0.05,138.75,0)" xlink:href="#at"/><use transform="matrix(0.05,0,0,0.05,148.75,0)" xlink:href="#au"/></g><g id="N"><use transform="matrix(0.05,0,0,0.05,0,0)" xlink:href="#aW"/><use transform="matrix(0.05,0,0,0.05,12,0)" xlink:href="#aK"/><use transform="matrix(0.05,0,0,0.05,22,0)" xlink:href="#aP"/><use transform="matrix(0.05,0,0,0.05,25.950000000000003,0)" xlink:href="#at"/><use transform="matrix(0.05,0,0,0.05,35.95,0)" xlink:href="#aq"/><use transform="matrix(0.05,0,0,0.05,44.95,0)" xlink:href="#bg"/><use transform="matrix(0.05,0,0,0.05,58.95,0)" xlink:href="#au"/><use transform="matrix(0.05,0,0,0.05,64.9,0)" xlink:href="#aU"/><use transform="matrix(0.05,0,0,0.05,74.9,0)" xlink:href="#at"/><use transform="matrix(0.05,0,0,0.05,84.9,0)" xlink:href="#au"/><use transform="matrix(0.05,0,0,0.05,90.85000000000001,0)" xlink:href="#aV"/><use transform="matrix(0.05,0,0,0.05,100.85000000000001,0)" xlink:href="#am"/><use transform="matrix(0.05,0,0,0.05,104.80000000000001,0)" xlink:href="#aQ"/><use transform="matrix(0.05,0,0,0.05,114.80000000000001,0)" xlink:href="#at"/><use transform="matrix(0.05,0,0,0.05,124.80000000000001,0)" xlink:href="#aS"/><use transform="matrix(0.05,0,0,0.05,137.75,0)" xlink:href="#ap"/><use transform="matrix(0.05,0,0,0.05,147.75,0)" xlink:href="#an"/><use transform="matrix(0.05,0,0,0.05,162.7,0)" xlink:href="#be"/><use transform="matrix(0.05,0,0,0.05,172.7,0)" xlink:href="#at"/><use transform="matrix(0.05,0,0,0.05,182.7,0)" xlink:href="#au"/></g><path d="M233-177c-1 41-23 64-60 70L243 0h-38l-65-103H63V0H30v-248c88 3 205-21 203 71zM63-129c60-2 137 13 137-47 0-61-80-42-137-45v92" id="bk"/><path d="M108 0H70L1-190h34L89-25l56-165h34" id="bl"/><g id="O"><use transform="matrix(0.05,0,0,0.05,0,0)" xlink:href="#bk"/><use transform="matrix(0.05,0,0,0.05,12.950000000000001,0)" xlink:href="#at"/><use transform="matrix(0.05,0,0,0.05,22.950000000000003,0)" xlink:href="#bl"/><use transform="matrix(0.05,0,0,0.05,31.950000000000003,0)" xlink:href="#am"/><use transform="matrix(0.05,0,0,0.05,35.900000000000006,0)" xlink:href="#aq"/><use transform="matrix(0.05,0,0,0.05,44.900000000000006,0)" xlink:href="#am"/><use transform="matrix(0.05,0,0,0.05,48.85000000000001,0)" xlink:href="#as"/><use transform="matrix(0.05,0,0,0.05,58.85,0)" xlink:href="#aQ"/><use transform="matrix(0.05,0,0,0.05,68.85000000000001,0)" xlink:href="#aS"/><use transform="matrix(0.05,0,0,0.05,81.80000000000001,0)" xlink:href="#ap"/><use transform="matrix(0.05,0,0,0.05,91.80000000000001,0)" xlink:href="#an"/><use transform="matrix(0.05,0,0,0.05,106.75,0)" xlink:href="#be"/><use transform="matrix(0.05,0,0,0.05,116.75,0)" xlink:href="#at"/><use transform="matrix(0.05,0,0,0.05,126.75,0)" xlink:href="#au"/></g><path d="M140-251c81 0 123 46 123 126C263-53 228-8 163 1c7 30 30 48 69 40v23c-55 16-95-15-103-61C56-3 17-48 17-125c0-80 42-126 123-126zm0 227c63 0 89-41 89-101s-29-99-89-99c-61 0-89 39-89 99S79-25 140-24" id="bm"/><g id="P"><use transform="matrix(0.05,0,0,0.05,0,0)" xlink:href="#bg"/><use transform="matrix(0.05,0,0,0.05,14,0)" xlink:href="#au"/><use transform="matrix(0.05,0,0,0.05,19.95,0)" xlink:href="#aU"/><use transform="matrix(0.05,0,0,0.05,29.950000000000003,0)" xlink:href="#at"/><use transform="matrix(0.05,0,0,0.05,39.95,0)" xlink:href="#au"/><use transform="matrix(0.05,0,0,0.05,45.900000000000006,0)" xlink:href="#bm"/><use transform="matrix(0.05,0,0,0.05,59.900000000000006,0)" xlink:href="#ap"/><use transform="matrix(0.05,0,0,0.05,69.9,0)" xlink:href="#aK"/><use transform="matrix(0.05,0,0,0.05,79.9,0)" xlink:href="#aQ"/><use transform="matrix(0.05,0,0,0.05,89.9,0)" xlink:href="#ar"/><use transform="matrix(0.05,0,0,0.05,94.9,0)" xlink:href="#am"/><use transform="matrix(0.05,0,0,0.05,98.85000000000001,0)" xlink:href="#ar"/><use transform="matrix(0.05,0,0,0.05,103.85000000000001,0)" xlink:href="#aN"/></g><path d="M232-93c-1 65-40 97-104 97C67 4 28-28 28-90v-158h33c8 89-33 224 67 224 102 0 64-133 71-224h33v155" id="bn"/><g id="Q"><use transform="matrix(0.05,0,0,0.05,0,0)" xlink:href="#bn"/><use transform="matrix(0.05,0,0,0.05,12.950000000000001,0)" xlink:href="#aQ"/><use transform="matrix(0.05,0,0,0.05,22.950000000000003,0)" xlink:href="#am"/><use transform="matrix(0.05,0,0,0.05,26.900000000000002,0)" xlink:href="#ar"/><use transform="matrix(0.05,0,0,0.05,31.900000000000002,0)" xlink:href="#av"/><use transform="matrix(0.05,0,0,0.05,43.900000000000006,0)" xlink:href="#au"/><use transform="matrix(0.05,0,0,0.05,49.85000000000001,0)" xlink:href="#am"/><use transform="matrix(0.05,0,0,0.05,53.80000000000001,0)" xlink:href="#bd"/><use transform="matrix(0.05,0,0,0.05,62.80000000000001,0)" xlink:href="#at"/></g><g id="R"><use transform="matrix(0.05,0,0,0.05,0,0)" xlink:href="#ba"/><use transform="matrix(0.05,0,0,0.05,12,0)" xlink:href="#aZ"/><use transform="matrix(0.05,0,0,0.05,21,0)" xlink:href="#ar"/><use transform="matrix(0.05,0,0,0.05,26,0)" xlink:href="#at"/><use transform="matrix(0.05,0,0,0.05,36,0)" xlink:href="#aQ"/><use transform="matrix(0.05,0,0,0.05,46,0)" xlink:href="#aU"/><use transform="matrix(0.05,0,0,0.05,56,0)" xlink:href="#aO"/><use transform="matrix(0.05,0,0,0.05,68,0)" xlink:href="#bd"/><use transform="matrix(0.05,0,0,0.05,77,0)" xlink:href="#bd"/><use transform="matrix(0.05,0,0,0.05,86,0)" xlink:href="#as"/><use transform="matrix(0.05,0,0,0.05,96,0)" xlink:href="#ap"/><use transform="matrix(0.05,0,0,0.05,106,0)" xlink:href="#aQ"/><use transform="matrix(0.05,0,0,0.05,116,0)" xlink:href="#ar"/></g><g id="S"><use transform="matrix(0.05,0,0,0.05,0,0)" xlink:href="#bn"/><use transform="matrix(0.05,0,0,0.05,12.950000000000001,0)" xlink:href="#aQ"/><use transform="matrix(0.05,0,0,0.05,22.950000000000003,0)" xlink:href="#am"/><use transform="matrix(0.05,0,0,0.05,26.900000000000002,0)" xlink:href="#ar"/><use transform="matrix(0.05,0,0,0.05,31.900000000000002,0)" xlink:href="#av"/><use transform="matrix(0.05,0,0,0.05,43.900000000000006,0)" xlink:href="#au"/><use transform="matrix(0.05,0,0,0.05,49.85000000000001,0)" xlink:href="#am"/><use transform="matrix(0.05,0,0,0.05,53.80000000000001,0)" xlink:href="#bd"/><use transform="matrix(0.05,0,0,0.05,62.80000000000001,0)" xlink:href="#at"/><use transform="matrix(0.05,0,0,0.05,72.80000000000001,0)" xlink:href="#al"/><use transform="matrix(0.05,0,0,0.05,85.75000000000001,0)" xlink:href="#am"/><use transform="matrix(0.05,0,0,0.05,89.70000000000002,0)" xlink:href="#aq"/><use transform="matrix(0.05,0,0,0.05,98.70000000000002,0)" xlink:href="#bd"/><use transform="matrix(0.05,0,0,0.05,107.7,0)" xlink:href="#as"/><use transform="matrix(0.05,0,0,0.05,117.7,0)" xlink:href="#ap"/><use transform="matrix(0.05,0,0,0.05,127.7,0)" xlink:href="#aQ"/><use transform="matrix(0.05,0,0,0.05,137.70000000000002,0)" xlink:href="#ar"/><use transform="matrix(0.05,0,0,0.05,142.70000000000002,0)" xlink:href="#av"/><use transform="matrix(0.05,0,0,0.05,154.70000000000002,0)" xlink:href="#ao"/><use transform="matrix(0.05,0,0,0.05,167.65,0)" xlink:href="#aR"/></g><g id="T"><use transform="matrix(0.05,0,0,0.05,0,0)" xlink:href="#al"/><use transform="matrix(0.05,0,0,0.05,12.950000000000001,0)" xlink:href="#am"/><use transform="matrix(0.05,0,0,0.05,16.900000000000002,0)" xlink:href="#aq"/><use transform="matrix(0.05,0,0,0.05,25.900000000000002,0)" xlink:href="#bd"/><use transform="matrix(0.05,0,0,0.05,34.900000000000006,0)" xlink:href="#as"/><use transform="matrix(0.05,0,0,0.05,44.900000000000006,0)" xlink:href="#ap"/><use transform="matrix(0.05,0,0,0.05,54.900000000000006,0)" xlink:href="#aQ"/><use transform="matrix(0.05,0,0,0.05,64.9,0)" xlink:href="#ar"/><use transform="matrix(0.05,0,0,0.05,69.9,0)" xlink:href="#aO"/><use transform="matrix(0.05,0,0,0.05,81.9,0)" xlink:href="#an"/><use transform="matrix(0.05,0,0,0.05,96.85000000000001,0)" xlink:href="#as"/><use transform="matrix(0.05,0,0,0.05,106.85000000000001,0)" xlink:href="#ap"/><use transform="matrix(0.05,0,0,0.05,116.85000000000001,0)" xlink:href="#aQ"/><use transform="matrix(0.05,0,0,0.05,126.85000000000001,0)" xlink:href="#ar"/></g><g id="U"><use transform="matrix(0.05,0,0,0.05,0,0)" xlink:href="#av"/><use transform="matrix(0.05,0,0,0.05,12,0)" xlink:href="#au"/><use transform="matrix(0.05,0,0,0.05,17.95,0)" xlink:href="#as"/><use transform="matrix(0.05,0,0,0.05,27.950000000000003,0)" xlink:href="#aU"/><use transform="matrix(0.05,0,0,0.05,37.95,0)" xlink:href="#ap"/><use transform="matrix(0.05,0,0,0.05,47.95,0)" xlink:href="#bd"/><use transform="matrix(0.05,0,0,0.05,56.95,0)" xlink:href="#ar"/><use transform="matrix(0.05,0,0,0.05,61.95,0)" xlink:href="#aW"/><use transform="matrix(0.05,0,0,0.05,73.95,0)" xlink:href="#ar"/><use transform="matrix(0.05,0,0,0.05,78.95,0)" xlink:href="#aK"/><use transform="matrix(0.05,0,0,0.05,88.95,0)" xlink:href="#aQ"/><use transform="matrix(0.05,0,0,0.05,98.95,0)" xlink:href="#aU"/><use transform="matrix(0.05,0,0,0.05,108.95,0)" xlink:href="#aK"/><use transform="matrix(0.05,0,0,0.05,118.95,0)" xlink:href="#au"/><use transform="matrix(0.05,0,0,0.05,124.9,0)" xlink:href="#aU"/><use transform="matrix(0.05,0,0,0.05,134.9,0)" xlink:href="#ao"/><use transform="matrix(0.05,0,0,0.05,147.85,0)" xlink:href="#as"/><use transform="matrix(0.05,0,0,0.05,157.85,0)" xlink:href="#aq"/><use transform="matrix(0.05,0,0,0.05,166.85,0)" xlink:href="#ar"/></g><g id="V"><use transform="matrix(0.05,0,0,0.05,0,0)" xlink:href="#aR"/><use transform="matrix(0.05,0,0,0.05,8.950000000000001,0)" xlink:href="#as"/><use transform="matrix(0.05,0,0,0.05,18.950000000000003,0)" xlink:href="#ar"/><use transform="matrix(0.05,0,0,0.05,23.950000000000003,0)" xlink:href="#aK"/><use transform="matrix(0.05,0,0,0.05,33.95,0)" xlink:href="#aP"/><use transform="matrix(0.05,0,0,0.05,37.900000000000006,0)" xlink:href="#av"/><use transform="matrix(0.05,0,0,0.05,49.900000000000006,0)" xlink:href="#au"/><use transform="matrix(0.05,0,0,0.05,55.85,0)" xlink:href="#as"/><use transform="matrix(0.05,0,0,0.05,65.85000000000001,0)" xlink:href="#aU"/><use transform="matrix(0.05,0,0,0.05,75.85000000000001,0)" xlink:href="#ap"/><use transform="matrix(0.05,0,0,0.05,85.85000000000001,0)" xlink:href="#bd"/><use transform="matrix(0.05,0,0,0.05,94.85000000000001,0)" xlink:href="#ar"/><use transform="matrix(0.05,0,0,0.05,99.85000000000001,0)" xlink:href="#ao"/><use transform="matrix(0.05,0,0,0.05,112.80000000000001,0)" xlink:href="#as"/><use transform="matrix(0.05,0,0,0.05,122.80000000000001,0)" xlink:href="#aq"/><use transform="matrix(0.05,0,0,0.05,131.8,0)" xlink:href="#ar"/></g><g id="W"><use transform="matrix(0.05,0,0,0.05,0,0)" xlink:href="#aW"/><use transform="matrix(0.05,0,0,0.05,12,0)" xlink:href="#aK"/><use transform="matrix(0.05,0,0,0.05,22,0)" xlink:href="#aP"/><use transform="matrix(0.05,0,0,0.05,25.950000000000003,0)" xlink:href="#at"/><use transform="matrix(0.05,0,0,0.05,35.95,0)" xlink:href="#aq"/><use transform="matrix(0.05,0,0,0.05,44.95,0)" xlink:href="#aO"/><use transform="matrix(0.05,0,0,0.05,56.95,0)" xlink:href="#an"/><use transform="matrix(0.05,0,0,0.05,71.9,0)" xlink:href="#as"/><use transform="matrix(0.05,0,0,0.05,81.9,0)" xlink:href="#ap"/><use transform="matrix(0.05,0,0,0.05,91.9,0)" xlink:href="#aQ"/><use transform="matrix(0.05,0,0,0.05,101.9,0)" xlink:href="#ar"/></g><g id="X"><use transform="matrix(0.05,0,0,0.05,0,0)" xlink:href="#aR"/><use transform="matrix(0.05,0,0,0.05,8.950000000000001,0)" xlink:href="#aK"/><use transform="matrix(0.05,0,0,0.05,18.950000000000003,0)" xlink:href="#aZ"/><use transform="matrix(0.05,0,0,0.05,27.950000000000003,0)" xlink:href="#aO"/><use transform="matrix(0.05,0,0,0.05,39.95,0)" xlink:href="#an"/><use transform="matrix(0.05,0,0,0.05,54.900000000000006,0)" xlink:href="#ar"/></g><g id="Y"><use transform="matrix(0.05,0,0,0.05,0,0)" xlink:href="#aH"/><use transform="matrix(0.05,0,0,0.05,10.950000000000001,0)" xlink:href="#au"/><use transform="matrix(0.05,0,0,0.05,16.900000000000002,0)" xlink:href="#at"/><use transform="matrix(0.05,0,0,0.05,26.900000000000002,0)" xlink:href="#am"/><use transform="matrix(0.05,0,0,0.05,30.85,0)" xlink:href="#aJ"/><use transform="matrix(0.05,0,0,0.05,40.85,0)" xlink:href="#aM"/><use transform="matrix(0.05,0,0,0.05,50.85,0)" xlink:href="#ar"/></g><path d="M143 0L79-87 56-68V0H24v-261h32v163l83-92h37l-77 82L181 0h-38" id="bo"/><g id="Z"><use transform="matrix(0.05,0,0,0.05,0,0)" xlink:href="#ao"/><use transform="matrix(0.05,0,0,0.05,12.950000000000001,0)" xlink:href="#aK"/><use transform="matrix(0.05,0,0,0.05,22.950000000000003,0)" xlink:href="#au"/><use transform="matrix(0.05,0,0,0.05,28.900000000000002,0)" xlink:href="#au"/><use transform="matrix(0.05,0,0,0.05,34.85,0)" xlink:href="#am"/><use transform="matrix(0.05,0,0,0.05,38.800000000000004,0)" xlink:href="#at"/><use transform="matrix(0.05,0,0,0.05,48.800000000000004,0)" xlink:href="#au"/><use transform="matrix(0.05,0,0,0.05,54.75,0)" xlink:href="#aR"/><use transform="matrix(0.05,0,0,0.05,65.05000000000001,0)" xlink:href="#au"/><use transform="matrix(0.05,0,0,0.05,71.00000000000001,0)" xlink:href="#aK"/><use transform="matrix(0.05,0,0,0.05,81.00000000000001,0)" xlink:href="#bd"/><use transform="matrix(0.05,0,0,0.05,90.00000000000001,0)" xlink:href="#bo"/><use transform="matrix(0.05,0,0,0.05,99.00000000000001,0)" xlink:href="#am"/><use transform="matrix(0.05,0,0,0.05,102.95,0)" xlink:href="#aQ"/><use transform="matrix(0.05,0,0,0.05,112.95,0)" xlink:href="#aJ"/><use transform="matrix(0.05,0,0,0.05,122.95,0)" xlink:href="#aS"/><use transform="matrix(0.05,0,0,0.05,135.9,0)" xlink:href="#ap"/><use transform="matrix(0.05,0,0,0.05,145.9,0)" xlink:href="#an"/><use transform="matrix(0.05,0,0,0.05,160.85,0)" xlink:href="#be"/><use transform="matrix(0.05,0,0,0.05,170.85,0)" xlink:href="#at"/><use transform="matrix(0.05,0,0,0.05,180.85,0)" xlink:href="#au"/></g><g id="aa"><use transform="matrix(0.05,0,0,0.05,0,0)" xlink:href="#ao"/><use transform="matrix(0.05,0,0,0.05,12.950000000000001,0)" xlink:href="#ap"/><use transform="matrix(0.05,0,0,0.05,22.950000000000003,0)" xlink:href="#aq"/><use transform="matrix(0.05,0,0,0.05,31.950000000000003,0)" xlink:href="#ar"/><use transform="matrix(0.05,0,0,0.05,36.95,0)" xlink:href="#as"/><use transform="matrix(0.05,0,0,0.05,46.95,0)" xlink:href="#an"/><use transform="matrix(0.05,0,0,0.05,61.900000000000006,0)" xlink:href="#at"/><use transform="matrix(0.05,0,0,0.05,71.9,0)" xlink:href="#au"/><use transform="matrix(0.05,0,0,0.05,77.85000000000001,0)" xlink:href="#av"/><use transform="matrix(0.05,0,0,0.05,89.85000000000001,0)" xlink:href="#bg"/><use transform="matrix(0.05,0,0,0.05,103.85000000000001,0)" xlink:href="#aS"/><use transform="matrix(0.05,0,0,0.05,116.80000000000001,0)" xlink:href="#ap"/><use transform="matrix(0.05,0,0,0.05,126.80000000000001,0)" xlink:href="#an"/><use transform="matrix(0.05,0,0,0.05,141.75,0)" xlink:href="#be"/><use transform="matrix(0.05,0,0,0.05,151.75,0)" xlink:href="#at"/><use transform="matrix(0.05,0,0,0.05,161.75,0)" xlink:href="#au"/></g><g id="ab"><use transform="matrix(0.05,0,0,0.05,0,0)" xlink:href="#al"/><use transform="matrix(0.05,0,0,0.05,12.950000000000001,0)" xlink:href="#am"/><use transform="matrix(0.05,0,0,0.05,16.900000000000002,0)" xlink:href="#an"/><use transform="matrix(0.05,0,0,0.05,31.85,0)" xlink:href="#aI"/><use transform="matrix(0.05,0,0,0.05,45.85,0)" xlink:href="#at"/><use transform="matrix(0.05,0,0,0.05,55.85,0)" xlink:href="#as"/><use transform="matrix(0.05,0,0,0.05,65.85,0)" xlink:href="#aJ"/><use transform="matrix(0.05,0,0,0.05,75.85,0)" xlink:href="#au"/><use transform="matrix(0.05,0,0,0.05,81.8,0)" xlink:href="#aK"/><use transform="matrix(0.05,0,0,0.05,91.8,0)" xlink:href="#aL"/><use transform="matrix(0.05,0,0,0.05,101.8,0)" xlink:href="#aM"/><use transform="matrix(0.05,0,0,0.05,111.80000000000001,0)" xlink:href="#aN"/></g><g id="ac"><use transform="matrix(0.05,0,0,0.05,0,0)" xlink:href="#ao"/><use transform="matrix(0.05,0,0,0.05,12.950000000000001,0)" xlink:href="#am"/><use transform="matrix(0.05,0,0,0.05,16.900000000000002,0)" xlink:href="#ar"/><use transform="matrix(0.05,0,0,0.05,21.900000000000002,0)" xlink:href="#aN"/></g><g id="ad"><use transform="matrix(0.05,0,0,0.05,0,0)" xlink:href="#aW"/><use transform="matrix(0.05,0,0,0.05,12,0)" xlink:href="#ar"/><use transform="matrix(0.05,0,0,0.05,17,0)" xlink:href="#aK"/><use transform="matrix(0.05,0,0,0.05,27,0)" xlink:href="#ar"/><use transform="matrix(0.05,0,0,0.05,32,0)" xlink:href="#at"/><use transform="matrix(0.05,0,0,0.05,42,0)" xlink:href="#av"/><use transform="matrix(0.05,0,0,0.05,54,0)" xlink:href="#au"/><use transform="matrix(0.05,0,0,0.05,59.95,0)" xlink:href="#as"/><use transform="matrix(0.05,0,0,0.05,69.95,0)" xlink:href="#bl"/><use transform="matrix(0.05,0,0,0.05,78.95,0)" xlink:href="#am"/><use transform="matrix(0.05,0,0,0.05,82.9,0)" xlink:href="#aQ"/><use transform="matrix(0.05,0,0,0.05,92.9,0)" xlink:href="#bd"/><use transform="matrix(0.05,0,0,0.05,101.9,0)" xlink:href="#at"/><use transform="matrix(0.05,0,0,0.05,111.9,0)" xlink:href="#ao"/><use transform="matrix(0.05,0,0,0.05,124.85000000000001,0)" xlink:href="#as"/><use transform="matrix(0.05,0,0,0.05,134.85000000000002,0)" xlink:href="#aU"/><use transform="matrix(0.05,0,0,0.05,144.85000000000002,0)" xlink:href="#at"/></g><g id="ae"><use transform="matrix(0.05,0,0,0.05,0,0)" xlink:href="#aW"/><use transform="matrix(0.05,0,0,0.05,12,0)" xlink:href="#ar"/><use transform="matrix(0.05,0,0,0.05,17,0)" xlink:href="#aK"/><use transform="matrix(0.05,0,0,0.05,27,0)" xlink:href="#ar"/><use transform="matrix(0.05,0,0,0.05,32,0)" xlink:href="#at"/><use transform="matrix(0.05,0,0,0.05,42,0)" xlink:href="#av"/><use transform="matrix(0.05,0,0,0.05,54,0)" xlink:href="#au"/><use transform="matrix(0.05,0,0,0.05,59.95,0)" xlink:href="#as"/><use transform="matrix(0.05,0,0,0.05,69.95,0)" xlink:href="#bl"/><use transform="matrix(0.05,0,0,0.05,78.95,0)" xlink:href="#am"/><use transform="matrix(0.05,0,0,0.05,82.9,0)" xlink:href="#aQ"/><use transform="matrix(0.05,0,0,0.05,92.9,0)" xlink:href="#bd"/><use transform="matrix(0.05,0,0,0.05,101.9,0)" xlink:href="#at"/><use transform="matrix(0.05,0,0,0.05,111.9,0)" xlink:href="#aS"/><use transform="matrix(0.05,0,0,0.05,124.85000000000001,0)" xlink:href="#aK"/><use transform="matrix(0.05,0,0,0.05,134.85000000000002,0)" xlink:href="#an"/><use transform="matrix(0.05,0,0,0.05,149.8,0)" xlink:href="#at"/></g><g id="af"><use transform="matrix(0.05,0,0,0.05,0,0)" xlink:href="#ao"/><use transform="matrix(0.05,0,0,0.05,12.950000000000001,0)" xlink:href="#as"/><use transform="matrix(0.05,0,0,0.05,22.950000000000003,0)" xlink:href="#ap"/><use transform="matrix(0.05,0,0,0.05,32.95,0)" xlink:href="#aQ"/><use transform="matrix(0.05,0,0,0.05,42.95,0)" xlink:href="#ar"/><use transform="matrix(0.05,0,0,0.05,47.95,0)" xlink:href="#au"/><use transform="matrix(0.05,0,0,0.05,53.900000000000006,0)" xlink:href="#aN"/><use transform="matrix(0.05,0,0,0.05,62.900000000000006,0)" xlink:href="#bk"/><use transform="matrix(0.05,0,0,0.05,75.85000000000001,0)" xlink:href="#at"/><use transform="matrix(0.05,0,0,0.05,85.85000000000001,0)" xlink:href="#aJ"/><use transform="matrix(0.05,0,0,0.05,95.85000000000001,0)" xlink:href="#am"/><use transform="matrix(0.05,0,0,0.05,99.80000000000001,0)" xlink:href="#as"/><use transform="matrix(0.05,0,0,0.05,109.80000000000001,0)" xlink:href="#aQ"/><use transform="matrix(0.05,0,0,0.05,119.80000000000001,0)" xlink:href="#ao"/><use transform="matrix(0.05,0,0,0.05,132.75,0)" xlink:href="#as"/><use transform="matrix(0.05,0,0,0.05,142.75,0)" xlink:href="#aU"/><use transform="matrix(0.05,0,0,0.05,152.75,0)" xlink:href="#at"/></g><g id="ag"><use transform="matrix(0.05,0,0,0.05,0,0)" xlink:href="#ba"/><use transform="matrix(0.05,0,0,0.05,12,0)" xlink:href="#aQ"/><use transform="matrix(0.05,0,0,0.05,22,0)" xlink:href="#aJ"/><use transform="matrix(0.05,0,0,0.05,32,0)" xlink:href="#aP"/><use transform="matrix(0.05,0,0,0.05,35.95,0)" xlink:href="#am"/><use transform="matrix(0.05,0,0,0.05,39.900000000000006,0)" xlink:href="#aq"/><use transform="matrix(0.05,0,0,0.05,48.900000000000006,0)" xlink:href="#aM"/><use transform="matrix(0.05,0,0,0.05,58.900000000000006,0)" xlink:href="#ao"/><use transform="matrix(0.05,0,0,0.05,71.85000000000001,0)" xlink:href="#as"/><use transform="matrix(0.05,0,0,0.05,81.85000000000001,0)" xlink:href="#ap"/><use transform="matrix(0.05,0,0,0.05,91.85000000000001,0)" xlink:href="#aQ"/><use transform="matrix(0.05,0,0,0.05,101.85000000000001,0)" xlink:href="#ar"/><use transform="matrix(0.05,0,0,0.05,106.85000000000001,0)" xlink:href="#au"/><use transform="matrix(0.05,0,0,0.05,112.80000000000001,0)" xlink:href="#aN"/><use transform="matrix(0.05,0,0,0.05,121.80000000000001,0)" xlink:href="#bk"/><use transform="matrix(0.05,0,0,0.05,134.75,0)" xlink:href="#at"/><use transform="matrix(0.05,0,0,0.05,144.75,0)" xlink:href="#aJ"/><use transform="matrix(0.05,0,0,0.05,154.75,0)" xlink:href="#am"/><use transform="matrix(0.05,0,0,0.05,158.7,0)" xlink:href="#as"/><use transform="matrix(0.05,0,0,0.05,168.7,0)" xlink:href="#aQ"/><use transform="matrix(0.05,0,0,0.05,178.7,0)" xlink:href="#aS"/><use transform="matrix(0.05,0,0,0.05,191.64999999999998,0)" xlink:href="#aK"/><use transform="matrix(0.05,0,0,0.05,201.64999999999998,0)" xlink:href="#an"/><use transform="matrix(0.05,0,0,0.05,216.59999999999997,0)" xlink:href="#at"/></g><g id="ah"><use transform="matrix(0.05,0,0,0.05,0,0)" xlink:href="#aW"/><use transform="matrix(0.05,0,0,0.05,12,0)" xlink:href="#aL"/><use transform="matrix(0.05,0,0,0.05,22,0)" xlink:href="#aK"/><use transform="matrix(0.05,0,0,0.05,32,0)" xlink:href="#aQ"/><use transform="matrix(0.05,0,0,0.05,42,0)" xlink:href="#am"/><use transform="matrix(0.05,0,0,0.05,45.95,0)" xlink:href="#aq"/><use transform="matrix(0.05,0,0,0.05,54.95,0)" xlink:href="#aM"/><use transform="matrix(0.05,0,0,0.05,64.95,0)" xlink:href="#ao"/><use transform="matrix(0.05,0,0,0.05,77.9,0)" xlink:href="#as"/><use transform="matrix(0.05,0,0,0.05,87.9,0)" xlink:href="#ap"/><use transform="matrix(0.05,0,0,0.05,97.9,0)" xlink:href="#aQ"/><use transform="matrix(0.05,0,0,0.05,107.9,0)" xlink:href="#ar"/><use transform="matrix(0.05,0,0,0.05,112.9,0)" xlink:href="#au"/><use transform="matrix(0.05,0,0,0.05,118.85000000000001,0)" xlink:href="#aN"/><use transform="matrix(0.05,0,0,0.05,127.85000000000001,0)" xlink:href="#bk"/><use transform="matrix(0.05,0,0,0.05,140.8,0)" xlink:href="#at"/><use transform="matrix(0.05,0,0,0.05,150.8,0)" xlink:href="#aJ"/><use transform="matrix(0.05,0,0,0.05,160.8,0)" xlink:href="#am"/><use transform="matrix(0.05,0,0,0.05,164.75,0)" xlink:href="#as"/><use transform="matrix(0.05,0,0,0.05,174.75,0)" xlink:href="#aQ"/><use transform="matrix(0.05,0,0,0.05,184.75,0)" xlink:href="#aS"/><use transform="matrix(0.05,0,0,0.05,197.7,0)" xlink:href="#aK"/><use transform="matrix(0.05,0,0,0.05,207.69999999999996,0)" xlink:href="#an"/><use transform="matrix(0.05,0,0,0.05,222.64999999999998,0)" xlink:href="#at"/></g><g id="ai"><use transform="matrix(0.05,0,0,0.05,0,0)" xlink:href="#aH"/><use transform="matrix(0.05,0,0,0.05,10.950000000000001,0)" xlink:href="#au"/><use transform="matrix(0.05,0,0,0.05,16.900000000000002,0)" xlink:href="#at"/><use transform="matrix(0.05,0,0,0.05,26.900000000000002,0)" xlink:href="#aQ"/><use transform="matrix(0.05,0,0,0.05,36.900000000000006,0)" xlink:href="#bd"/><use transform="matrix(0.05,0,0,0.05,45.900000000000006,0)" xlink:href="#aM"/><use transform="matrix(0.05,0,0,0.05,55.900000000000006,0)" xlink:href="#ao"/><use transform="matrix(0.05,0,0,0.05,68.85000000000001,0)" xlink:href="#as"/><use transform="matrix(0.05,0,0,0.05,78.85000000000001,0)" xlink:href="#ap"/><use transform="matrix(0.05,0,0,0.05,88.85000000000001,0)" xlink:href="#aQ"/><use transform="matrix(0.05,0,0,0.05,98.85000000000001,0)" xlink:href="#ar"/><use transform="matrix(0.05,0,0,0.05,103.85000000000001,0)" xlink:href="#au"/><use transform="matrix(0.05,0,0,0.05,109.80000000000001,0)" xlink:href="#aN"/><use transform="matrix(0.05,0,0,0.05,118.80000000000001,0)" xlink:href="#bk"/><use transform="matrix(0.05,0,0,0.05,131.75,0)" xlink:href="#at"/><use transform="matrix(0.05,0,0,0.05,141.75,0)" xlink:href="#aJ"/><use transform="matrix(0.05,0,0,0.05,151.75,0)" xlink:href="#am"/><use transform="matrix(0.05,0,0,0.05,155.7,0)" xlink:href="#as"/><use transform="matrix(0.05,0,0,0.05,165.7,0)" xlink:href="#aQ"/><use transform="matrix(0.05,0,0,0.05,175.7,0)" xlink:href="#aS"/><use transform="matrix(0.05,0,0,0.05,188.64999999999998,0)" xlink:href="#aK"/><use transform="matrix(0.05,0,0,0.05,198.64999999999998,0)" xlink:href="#an"/><use transform="matrix(0.05,0,0,0.05,213.59999999999997,0)" xlink:href="#at"/></g><g id="aj"><use transform="matrix(0.05,0,0,0.05,0,0)" xlink:href="#av"/><use transform="matrix(0.05,0,0,0.05,12,0)" xlink:href="#as"/><use transform="matrix(0.05,0,0,0.05,22,0)" xlink:href="#aq"/><use transform="matrix(0.05,0,0,0.05,31,0)" xlink:href="#ar"/><use transform="matrix(0.05,0,0,0.05,36,0)" xlink:href="#aK"/><use transform="matrix(0.05,0,0,0.05,46,0)" xlink:href="#aP"/><use transform="matrix(0.05,0,0,0.05,49.95,0)" xlink:href="#ao"/><use transform="matrix(0.05,0,0,0.05,62.900000000000006,0)" xlink:href="#as"/><use transform="matrix(0.05,0,0,0.05,72.9,0)" xlink:href="#aU"/><use transform="matrix(0.05,0,0,0.05,82.9,0)" xlink:href="#at"/></g><g id="ak"><use transform="matrix(0.05,0,0,0.05,0,0)" xlink:href="#aW"/><use transform="matrix(0.05,0,0,0.05,12,0)" xlink:href="#aK"/><use transform="matrix(0.05,0,0,0.05,22,0)" xlink:href="#aP"/><use transform="matrix(0.05,0,0,0.05,25.950000000000003,0)" xlink:href="#at"/><use transform="matrix(0.05,0,0,0.05,35.95,0)" xlink:href="#aq"/><use transform="matrix(0.05,0,0,0.05,44.95,0)" xlink:href="#aR"/><use transform="matrix(0.05,0,0,0.05,53.900000000000006,0)" xlink:href="#at"/><use transform="matrix(0.05,0,0,0.05,63.900000000000006,0)" xlink:href="#au"/><use transform="matrix(0.05,0,0,0.05,69.85000000000001,0)" xlink:href="#au"/><use transform="matrix(0.05,0,0,0.05,75.80000000000001,0)" xlink:href="#am"/><use transform="matrix(0.05,0,0,0.05,79.75000000000001,0)" xlink:href="#ar"/><use transform="matrix(0.05,0,0,0.05,84.75000000000001,0)" xlink:href="#as"/><use transform="matrix(0.05,0,0,0.05,94.75000000000001,0)" xlink:href="#aN"/><use transform="matrix(0.05,0,0,0.05,103.75,0)" xlink:href="#aw"/><use transform="matrix(0.05,0,0,0.05,115.75,0)" xlink:href="#at"/><use transform="matrix(0.05,0,0,0.05,125.75,0)" xlink:href="#aN"/></g></defs></g></svg>